<svg width="37" height="37" viewBox="0 0 37 37" fill="none" xmlns="http://www.w3.org/2000/svg">
<circle cx="18.5" cy="18.5" r="18.5" fill="#F2F2F2"/>
<path d="M17 16.6083C17 15.6638 17.7415 14.9316 18.6154 14.9316C19.4893 14.9316 20.2308 15.6638 20.2308 16.6083C20.2308 17.5528 19.4893 18.285 18.6154 18.285C17.7415 18.285 17 17.5528 17 16.6083Z" fill="#22343D"/>
<path fill-rule="evenodd" clip-rule="evenodd" d="M17.0675 26.8289C17.3978 27.1289 17.6735 27.369 17.8674 27.5347L18.1209 27.7928C18.3923 28.0691 18.8384 28.0691 19.1099 27.7928L19.3634 27.5347C19.5573 27.369 19.833 27.1289 20.1633 26.8289C20.823 26.2297 21.7048 25.3877 22.5889 24.4191C23.4706 23.4532 24.3686 22.3463 25.0499 21.2171C25.7227 20.1021 26.2308 18.8902 26.2308 17.7317C26.2308 13.4745 22.834 10 18.6154 10C14.3968 10 11 13.4745 11 17.7317C11 18.8902 11.508 20.1021 12.1809 21.2171C12.8622 22.3463 13.7602 23.4532 14.6419 24.4191C15.526 25.3877 16.4078 26.2297 17.0675 26.8289ZM15.6154 16.6083C15.6154 14.9381 16.9403 13.5507 18.6154 13.5507C20.2905 13.5507 21.6154 14.9381 21.6154 16.6083C21.6154 18.2785 20.2905 19.6659 18.6154 19.6659C16.9403 19.6659 15.6154 18.2785 15.6154 16.6083Z" fill="#22343D"/>
</svg>
