<svg width="16" height="20" viewBox="0 0 16 20" fill="none" xmlns="http://www.w3.org/2000/svg">
<path d="M12.7988 3.19641C12.1578 2.52677 11.3962 1.99572 10.5575 1.63378C9.71885 1.27184 8.81978 1.08616 7.912 1.08741C7.00421 1.08606 6.10512 1.27169 5.26645 1.63364C4.42779 1.99558 3.66611 2.52669 3.02522 3.19641C2.38227 3.86414 1.87236 4.65766 1.52481 5.53135C1.17725 6.40504 0.998897 7.34168 1.00001 8.28741C1.00001 10.3922 1.77415 12.2984 3.02522 13.6778L7.912 19.0874L12.7988 13.6778C14.0499 12.2984 14.824 10.3922 14.824 8.28741C14.824 6.29901 14.0499 4.49961 12.7988 3.19641ZM11.9601 12.8552L7.912 17.336L3.86215 12.8534C2.75969 11.6372 2.15201 10.016 2.15201 8.28741C2.14988 7.4991 2.29796 6.71819 2.58766 5.98992C2.87736 5.26165 3.30292 4.60051 3.83969 4.04481C4.37314 3.48586 5.00776 3.04272 5.70679 2.74105C6.40582 2.43939 7.15536 2.2852 7.912 2.28741C8.6687 2.28518 9.41829 2.43942 10.1173 2.74119C10.8164 3.04296 11.451 3.48627 11.9843 4.04541C12.521 4.60104 12.9465 5.26209 13.2362 5.99024C13.5259 6.7184 13.6741 7.4992 13.672 8.28741C13.672 10.016 13.0643 11.6372 11.9601 12.8552Z" fill="#02897A" stroke="#02897A"/>
<path d="M7.91203 10.6875C9.1845 10.6875 10.216 9.61294 10.216 8.28745C10.216 6.96197 9.1845 5.88745 7.91203 5.88745C6.63957 5.88745 5.60803 6.96197 5.60803 8.28745C5.60803 9.61294 6.63957 10.6875 7.91203 10.6875Z" fill="#02897A"/>
</svg>
