<svg width="13" height="19" viewBox="0 0 13 19" fill="none" xmlns="http://www.w3.org/2000/svg">
<path fill-rule="evenodd" clip-rule="evenodd" d="M3.2764 0.930496C5.30336 -0.212052 7.79483 -0.192078 9.80277 0.982803C11.791 2.18162 12.9994 4.32117 12.9881 6.6227C12.9418 8.90915 11.6461 11.0584 10.0264 12.7199C9.09162 13.6832 8.04586 14.5349 6.91053 15.2578C6.7936 15.3234 6.66552 15.3673 6.53261 15.3874C6.40469 15.3821 6.28011 15.3454 6.17012 15.2807C4.43681 14.1945 2.91617 12.808 1.68136 11.188C0.648103 9.83563 0.0610779 8.20181 1.07778e-06 6.50838C-0.00134027 4.20242 1.24944 2.07304 3.2764 0.930496ZM4.45155 7.46287C4.79251 8.27832 5.59732 8.81023 6.49019 8.81023C7.07512 8.8143 7.6374 8.58701 8.05175 8.179C8.4661 7.77098 8.69808 7.21614 8.696 6.63811C8.69912 5.7558 8.16368 4.95865 7.33967 4.61887C6.51567 4.27908 5.56565 4.46368 4.93319 5.08649C4.30073 5.70927 4.11059 6.64741 4.45155 7.46287Z" fill="white"/>
<ellipse opacity="0.4" cx="6.49096" cy="17.1876" rx="4.63866" ry="0.9" fill="white"/>
</svg>
