<svg width="150" height="151" viewBox="0 0 150 151" fill="none" xmlns="http://www.w3.org/2000/svg">
<path d="M75.0113 0.84375C33.624 0.84375 -8.61336e-05 34.4452 1.65484e-10 75.8325C-8.61336e-05 117.22 33.624 150.844 75.0113 150.844C116.399 150.844 150 117.22 150 75.8325C150 34.4452 116.399 0.84375 75.0113 0.84375ZM75.0113 6.61298C113.281 6.61298 144.231 37.5632 144.231 75.8325C144.231 114.102 113.281 145.063 75.0113 145.063C36.7419 145.063 5.76915 114.102 5.76923 75.8325C5.76915 37.5632 36.7419 6.61298 75.0113 6.61298ZM75 29.6899C63.8821 29.6899 54.8075 38.772 54.8077 49.9047C54.8075 61.0375 63.8821 70.1196 75 70.1196C86.1179 70.1196 95.1925 61.0375 95.1923 49.9047C95.1925 38.772 86.1179 29.6899 75 29.6899ZM56.4641 75.8888C47.5952 75.8888 40.3395 83.0734 40.3395 91.912V101.783V104.51V119.113C40.3397 120.708 41.6311 121.998 43.2242 121.998H106.787C108.376 121.991 109.66 120.704 109.66 119.113V104.51V101.783V91.912C109.66 83.0734 102.405 75.8888 93.5359 75.8888H56.4641Z" fill="#E0E0E0"/>
</svg>
