<svg width="25" height="25" viewBox="0 0 25 25" fill="none" xmlns="http://www.w3.org/2000/svg">
<circle cx="12.5" cy="12.5" r="12.5" fill="#F2F2F2"/>
<path d="M10.6429 8.83333H14.3571V7.91667H10.6429V8.83333ZM19 13.4167V16.8542C19 17.1693 18.8863 17.439 18.659 17.6634C18.4317 17.8878 18.1585 18 17.8393 18H7.16071C6.84152 18 6.56827 17.8878 6.34096 17.6634C6.11365 17.439 6 17.1693 6 16.8542V13.4167H10.875V14.5625C10.875 14.6866 10.9209 14.7941 11.0128 14.8848C11.1047 14.9755 11.2135 15.0208 11.3393 15.0208H13.6607C13.7865 15.0208 13.8953 14.9755 13.9872 14.8848C14.0791 14.7941 14.125 14.6866 14.125 14.5625V13.4167H19ZM13.4286 13.4167V14.3333H11.5714V13.4167H13.4286ZM19 9.97917V12.7292H6V9.97917C6 9.66406 6.11365 9.39431 6.34096 9.16992C6.56827 8.94553 6.84152 8.83333 7.16071 8.83333H9.71429V7.6875C9.71429 7.49653 9.78199 7.3342 9.91741 7.20052C10.0528 7.06684 10.2173 7 10.4107 7H14.5893C14.7827 7 14.9472 7.06684 15.0826 7.20052C15.218 7.3342 15.2857 7.49653 15.2857 7.6875V8.83333H17.8393C18.1585 8.83333 18.4317 8.94553 18.659 9.16992C18.8863 9.39431 19 9.66406 19 9.97917Z" fill="black"/>
</svg>
