<svg width="14" height="12" viewBox="0 0 14 12" fill="none" xmlns="http://www.w3.org/2000/svg">
<path d="M0.437439 9.51562C0.437439 9.95075 0.61029 10.368 0.917967 10.6757C1.22564 10.9834 1.64294 11.1562 2.07806 11.1562H11.9218C12.3569 11.1562 12.7742 10.9834 13.0819 10.6757C13.3896 10.368 13.5624 9.95075 13.5624 9.51562V5.00391H0.437439V9.51562ZM2.37103 7.28906C2.37103 7.05596 2.46363 6.83241 2.62846 6.66758C2.79328 6.50276 3.01684 6.41016 3.24994 6.41016H4.65619C4.88929 6.41016 5.11284 6.50276 5.27767 6.66758C5.4425 6.83241 5.53509 7.05596 5.53509 7.28906V7.875C5.53509 8.1081 5.4425 8.33165 5.27767 8.49648C5.11284 8.66131 4.88929 8.75391 4.65619 8.75391H3.24994C3.01684 8.75391 2.79328 8.66131 2.62846 8.49648C2.46363 8.33165 2.37103 8.1081 2.37103 7.875V7.28906Z" fill="#475E69"/>
<path d="M11.9218 0.842773H2.07806C1.64294 0.842773 1.22564 1.01562 0.917967 1.3233C0.61029 1.63098 0.437439 2.04828 0.437439 2.4834V3.24512H13.5624V2.4834C13.5624 2.04828 13.3896 1.63098 13.0819 1.3233C12.7742 1.01562 12.3569 0.842773 11.9218 0.842773V0.842773Z" fill="#475E69"/>
</svg>
