<svg width="16" height="16" viewBox="0 0 16 16" fill="none" xmlns="http://www.w3.org/2000/svg">
<path fill-rule="evenodd" clip-rule="evenodd" d="M3.97222 1.36044V0.75641C3.97222 0.338656 4.3391 0 4.79167 0C5.24423 0 5.61111 0.338656 5.61111 0.75641V1.16341C6.25408 1.13608 7.02555 1.13608 7.97198 1.13609H8.02506C8.97366 1.13608 9.7461 1.13608 10.3889 1.1634V0.75641C10.3889 0.338656 10.7558 0 11.2083 0C11.6609 0 12.0278 0.338657 12.0278 0.75641V1.36046C12.2158 1.40623 12.3963 1.46179 12.572 1.52943C13.934 2.05384 15.0147 3.0591 15.5777 4.3227C15.8269 4.88179 15.924 5.49575 15.9663 6.26463C16 6.87695 16 7.62271 16 8.55199V8.59089C16 9.63027 16 10.4415 15.952 11.0961C15.9032 11.7609 15.8026 12.3088 15.5777 12.8134C15.0147 14.077 13.934 15.0822 12.572 15.6067C12.0276 15.8163 11.4367 15.9099 10.7207 15.9553C10.016 16 9.14283 16 8.02507 16H7.97493C6.85717 16 5.984 16 5.27932 15.9553C4.5633 15.9099 3.97245 15.8163 3.42802 15.6067C2.06601 15.0822 0.985345 14.077 0.422266 12.8134C0.197394 12.3088 0.0968421 11.7609 0.0480432 11.0961C-4.56721e-06 10.4415 -2.58396e-06 9.63027 3.86472e-08 8.59089V8.552C-1.07397e-06 7.62271 -1.94833e-06 6.87696 0.0336965 6.26463C0.0760107 5.49575 0.173124 4.88179 0.422266 4.3227C0.985345 3.0591 2.06601 2.05384 3.42802 1.52943C3.60381 1.46175 3.78427 1.40619 3.97222 1.36044ZM5.00864 2.43789C4.91416 2.44741 4.82484 2.45812 4.73998 2.47014C4.41962 2.51551 4.16535 2.57909 3.9413 2.66535C2.90747 3.0634 2.08466 3.82749 1.65536 4.79089C1.54722 5.03357 1.47267 5.31233 1.42312 5.68047H14.5769C14.5273 5.31233 14.4528 5.03357 14.3446 4.79089C13.9153 3.82749 13.0925 3.0634 12.0587 2.66535C11.8366 2.57984 11.5855 2.51675 11.2692 2.47147C11.2626 2.47062 11.256 2.46969 11.2494 2.46867C11.1674 2.45721 11.081 2.44693 10.9897 2.43773C10.9853 2.43734 10.9809 2.4369 10.9765 2.43642C10.8681 2.42569 10.7527 2.41647 10.6293 2.40865C9.97565 2.36719 9.14815 2.36686 8 2.36686C6.80862 2.36686 5.96313 2.36726 5.30005 2.41334C5.20367 2.42004 5.11222 2.42764 5.02514 2.43624C5.01966 2.43685 5.01416 2.4374 5.00864 2.43789ZM14.6562 6.91124H1.34382C1.33343 7.37387 1.33333 7.91568 1.33333 8.56804C1.33333 9.63511 1.33369 10.4048 1.37833 11.0129C1.42256 11.6156 1.50808 12.0147 1.65536 12.3452C2.08466 13.3086 2.90747 14.0727 3.9413 14.4707C4.2953 14.607 4.72315 14.6864 5.37071 14.7274C6.02435 14.7689 6.85185 14.7692 8 14.7692C9.14815 14.7692 9.97565 14.7689 10.6293 14.7274C11.2768 14.6864 11.7047 14.607 12.0587 14.4707C13.0925 14.0727 13.9153 13.3086 14.3446 12.3452C14.4919 12.0147 14.5774 11.6156 14.6217 11.0129C14.6663 10.4048 14.6667 9.63511 14.6667 8.56804C14.6667 7.91568 14.6666 7.37387 14.6562 6.91124Z" fill="#979797"/>
</svg>
