<svg width="17" height="16" viewBox="0 0 17 16" fill="none" xmlns="http://www.w3.org/2000/svg">
<path fill-rule="evenodd" clip-rule="evenodd" d="M8.5 0C8.86111 0 9.15385 0.298477 9.15385 0.666667V9.05719L10.653 7.5286C10.9084 7.26825 11.3224 7.26825 11.5777 7.5286C11.8331 7.78895 11.8331 8.21106 11.5777 8.47141L8.96234 11.1381C8.707 11.3984 8.293 11.3984 8.03766 11.1381L5.42228 8.47141C5.16693 8.21106 5.16693 7.78895 5.42228 7.5286C5.67762 7.26825 6.09161 7.26825 6.34695 7.5286L7.84615 9.05719V0.666667C7.84615 0.298477 8.13889 0 8.5 0ZM0.653846 6.66667C1.01496 6.66667 1.30769 6.96514 1.30769 7.33333V8.93333C1.30769 10.0644 1.3082 10.8727 1.35897 11.5062C1.40911 12.132 1.50502 12.5285 1.66402 12.8466C1.97745 13.4738 2.47758 13.9838 3.09272 14.3034C3.40478 14.4655 3.7936 14.5633 4.40734 14.6144C5.02872 14.6661 5.82142 14.6667 6.93077 14.6667H10.0692C11.1786 14.6667 11.9713 14.6661 12.5927 14.6144C13.2064 14.5633 13.5952 14.4655 13.9073 14.3034C14.5224 13.9838 15.0226 13.4738 15.336 12.8466C15.495 12.5285 15.5909 12.132 15.641 11.5062C15.6918 10.8727 15.6923 10.0644 15.6923 8.93333V7.33333C15.6923 6.96514 15.985 6.66667 16.3462 6.66667C16.7073 6.66667 17 6.96514 17 7.33333V8.96296C17 10.058 17 10.9206 16.9444 11.6148C16.8876 12.323 16.7697 12.9145 16.5011 13.452C16.0623 14.33 15.3622 15.044 14.501 15.4914C13.9738 15.7652 13.3938 15.8854 12.6991 15.9433C12.0183 16 11.1722 16 10.0983 16H6.90171C5.82775 16 4.98171 16 4.30086 15.9433C3.60624 15.8854 3.02618 15.7652 2.49904 15.4914C1.63784 15.044 0.93766 14.33 0.498855 13.452C0.230267 12.9145 0.112373 12.323 0.0556204 11.6148C-7.8724e-06 10.9206 -4.28775e-06 10.058 7.71439e-08 8.96294L2.33033e-07 7.33333C2.33033e-07 6.96514 0.292737 6.66667 0.653846 6.66667Z" fill="white"/>
</svg>
