<svg width="22" height="18" viewBox="0 0 22 18" fill="none" xmlns="http://www.w3.org/2000/svg">
<path opacity="0.4" d="M21.4409 12.9405C21.4409 15.7305 19.0395 17.9905 16.0485 18.0005H16.0378H5.41383C2.43354 18.0005 0 15.7505 0 12.9605V12.9505C0 12.9505 0.00643228 8.52449 0.0150086 6.29849C0.0160807 5.88049 0.530663 5.64649 0.881222 5.90649C3.4284 7.79149 7.98353 11.2285 8.04035 11.2735C8.8015 11.8425 9.76634 12.1635 10.7526 12.1635C11.7389 12.1635 12.7037 11.8425 13.4649 11.2625C13.5217 11.2275 17.975 7.89349 20.5608 5.97749C20.9124 5.71649 21.4291 5.95049 21.4302 6.36749C21.4409 8.57649 21.4409 12.9405 21.4409 12.9405Z" fill="#475E69"/>
<path d="M20.876 2.674C19.9476 1.042 18.1209 0 16.1097 0H5.41068C3.39952 0 1.57275 1.042 0.64436 2.674C0.436383 3.039 0.535011 3.494 0.881282 3.752L8.84122 9.691C9.39869 10.111 10.0741 10.32 10.7495 10.32C10.7538 10.32 10.757 10.32 10.7602 10.32C10.7634 10.32 10.7677 10.32 10.7709 10.32C11.4463 10.32 12.1217 10.111 12.6791 9.691L20.6391 3.752C20.9854 3.494 21.084 3.039 20.876 2.674Z" fill="#B5BFC3"/>
</svg>
