<svg width="58" height="24" viewBox="0 0 58 24" fill="none" xmlns="http://www.w3.org/2000/svg">
<path d="M17 16H1C0.734784 16 0.48043 15.8946 0.292893 15.7071C0.105357 15.5196 0 15.2652 0 15C0 14.7348 0.105357 14.4804 0.292893 14.2929C0.48043 14.1054 0.734784 14 1 14H17C17.2652 14 17.5196 14.1054 17.7071 14.2929C17.8946 14.4804 18 14.7348 18 15C18 15.2652 17.8946 15.5196 17.7071 15.7071C17.5196 15.8946 17.2652 16 17 16ZM18 11H8C7.73478 11 7.48043 10.8946 7.29289 10.7071C7.10536 10.5196 7 10.2652 7 10C7 9.73478 7.10536 9.48043 7.29289 9.29289C7.48043 9.10536 7.73478 9 8 9H18C18.2652 9 18.5196 9.10536 18.7071 9.29289C18.8946 9.48043 19 9.73478 19 10C19 10.2652 18.8946 10.5196 18.7071 10.7071C18.5196 10.8946 18.2652 11 18 11ZM19 6H14C13.7348 6 13.4804 5.89464 13.2929 5.70711C13.1054 5.51957 13 5.26522 13 5C13 4.73478 13.1054 4.48043 13.2929 4.29289C13.4804 4.10536 13.7348 4 14 4H19C19.2652 4 19.5196 4.10536 19.7071 4.29289C19.8946 4.48043 20 4.73478 20 5C20 5.26522 19.8946 5.51957 19.7071 5.70711C19.5196 5.89464 19.2652 6 19 6ZM38.45 11.32C38.6194 11.4406 38.8221 11.5054 39.03 11.5054C39.2379 11.5054 39.4406 11.4406 39.61 11.32L55.75 0.42C55.2061 0.148886 54.6077 0.00525104 54 0H28C27.3725 0.00301488 26.7551 0.157384 26.2 0.450001L38.45 11.32ZM35.21 11.12L24.69 1.78C24.2408 2.43321 24.0002 3.20725 24 4L22 20C22.0066 20.7518 22.2249 21.4866 22.63 22.12L35.21 11.12Z" fill="#02897A"/>
<path d="M54.75 22.8997L54.76 22.8896L54.75 22.8997Z" fill="#02897A"/>
<path d="M41.3501 12.52L40.7701 12.9C40.265 13.2862 39.6459 13.4937 39.0101 13.49C38.3472 13.4879 37.7037 13.2664 37.1801 12.86L36.7201 12.46L24.0901 23.46C24.6693 23.8021 25.3274 23.9882 26.0001 24H52.0001C52.67 23.9973 53.328 23.8216 53.9101 23.49L41.3501 12.52Z" fill="#02897A"/>
<path d="M57.3101 1.78027V1.79027L57.3201 1.78027H57.3101Z" fill="#02897A"/>
<path d="M57.3101 1.79004L43.0601 11.36L55.3701 22.12C55.7751 21.4866 55.9935 20.7519 56.0001 20L58.0001 4.00004C57.9984 3.21061 57.7579 2.44016 57.3101 1.79004Z" fill="#02897A"/>
</svg>
