<svg width="22" height="19" viewBox="0 0 22 19" fill="none" xmlns="http://www.w3.org/2000/svg">
<path opacity="0.4" d="M21.5129 13.028C21.5129 15.818 19.1116 18.078 16.1206 18.088H16.1098H5.48585C2.50557 18.088 0.0720215 15.838 0.0720215 13.048V13.038C0.0720215 13.038 0.0784538 8.61201 0.0870301 6.38601C0.0881022 5.96801 0.602684 5.73401 0.953243 5.99401C3.50042 7.87901 8.05555 11.316 8.11237 11.361C8.87352 11.93 9.83836 12.251 10.8246 12.251C11.8109 12.251 12.7758 11.93 13.5369 11.35C13.5937 11.315 18.047 7.98101 20.6328 6.06501C20.9844 5.80401 21.5012 6.03801 21.5022 6.45501C21.5129 8.66401 21.5129 13.028 21.5129 13.028Z" fill="white"/>
<path d="M20.9479 2.7614C20.0195 1.1294 18.1928 0.0874023 16.1816 0.0874023H5.48258C3.47142 0.0874023 1.64465 1.1294 0.716259 2.7614C0.508283 3.1264 0.606911 3.5814 0.953182 3.8394L8.91312 9.7784C9.47059 10.1984 10.146 10.4074 10.8214 10.4074C10.8257 10.4074 10.8289 10.4074 10.8321 10.4074C10.8353 10.4074 10.8396 10.4074 10.8428 10.4074C11.5182 10.4074 12.1936 10.1984 12.751 9.7784L20.711 3.8394C21.0573 3.5814 21.1559 3.1264 20.9479 2.7614Z" fill="white"/>
</svg>
