<svg width="25" height="25" viewBox="0 0 25 25" fill="none" xmlns="http://www.w3.org/2000/svg">
<circle cx="12.5" cy="12.5" r="12.5" fill="#F2F2F2"/>
<path fill-rule="evenodd" clip-rule="evenodd" d="M16.972 7.77629C16.6089 7.59125 16.2092 7.51003 15.7307 7.47094C15.2616 7.43261 14.6788 7.43261 13.9389 7.43262L11.2941 7.43262C10.5468 7.43262 9.85454 7.43262 9.27654 7.4704C8.71112 7.50736 8.18164 7.58321 7.80271 7.77629C7.2094 8.07859 6.72703 8.56097 6.42473 9.15427C6.23969 9.51742 6.15847 9.91704 6.11937 10.3956C6.08105 10.8646 6.08105 11.4475 6.08105 12.1874V13.4887C6.08105 14.2285 6.08105 14.8114 6.11937 15.2805C6.15847 15.759 6.23969 16.1586 6.42473 16.5218C6.72703 17.1151 7.2094 17.5975 7.80271 17.8998C8.18164 18.0928 8.71112 18.1687 9.27654 18.2056C9.85455 18.2434 10.5468 18.2434 11.2942 18.2434H13.9389C14.6788 18.2434 15.2616 18.2434 15.7307 18.2051C16.2092 18.166 16.6089 18.0848 16.972 17.8998C17.5653 17.5975 18.0477 17.1151 18.35 16.5218C18.535 16.1586 18.6163 15.759 18.6553 15.2805C18.6937 14.8114 18.6937 14.2285 18.6937 13.4887V12.1874C18.6937 11.4475 18.6937 10.8646 18.6553 10.3956C18.6163 9.91704 18.535 9.51742 18.35 9.15427C18.0477 8.56097 17.5653 8.07859 16.972 7.77629ZM8.63419 9.88546C8.77218 9.67846 9.05185 9.62253 9.25885 9.76052L11.138 11.0133C11.5095 11.261 11.7586 11.4263 11.9647 11.5335C12.1611 11.6357 12.281 11.6644 12.3874 11.6644C12.4937 11.6644 12.6137 11.6357 12.81 11.5335C13.0161 11.4263 13.2652 11.261 13.6367 11.0133L15.5159 9.76052C15.7229 9.62253 16.0025 9.67846 16.1405 9.88546C16.2785 10.0925 16.2226 10.3721 16.0156 10.5101L14.1164 11.7762C13.7701 12.0071 13.4804 12.2003 13.2258 12.3327C12.9565 12.4728 12.6902 12.5653 12.3874 12.5653C12.0846 12.5653 11.8183 12.4728 11.549 12.3327C11.2943 12.2003 11.0046 12.0071 10.6583 11.7762L8.75912 10.5101C8.55212 10.3721 8.49619 10.0925 8.63419 9.88546Z" fill="#22343D"/>
</svg>
