<svg width="33" height="33" viewBox="0 0 33 33" fill="none" xmlns="http://www.w3.org/2000/svg">
<path d="M16.5 33C25.6127 33 33 25.6127 33 16.5C33 7.38729 25.6127 0 16.5 0C7.38729 0 0 7.38729 0 16.5C0 25.6127 7.38729 33 16.5 33Z" fill="#3C5A9A"/>
<path d="M21.8644 5.06445H18.2092C16.0401 5.06445 13.6275 5.97674 13.6275 9.12092C13.6381 10.2165 13.6275 11.2657 13.6275 12.4465H11.1182V16.4396H13.7052V27.9351H18.4589V16.3638H21.5965L21.8804 12.4353H18.377C18.377 12.4353 18.3848 10.6878 18.377 10.1803C18.377 8.93777 19.6699 9.00893 19.7476 9.00893C20.3629 9.00893 21.5591 9.01072 21.8662 9.00893V5.06445H21.8644V5.06445Z" fill="white"/>
</svg>
