<svg width="25" height="26" viewBox="0 0 25 26" fill="none" xmlns="http://www.w3.org/2000/svg">
<path d="M12.5 0.0874023C5.60753 0.0874023 0 5.69493 0 12.5874C0 19.4794 5.60753 25.0874 12.5 25.0874C19.392 25.0874 25 19.4794 25 12.5874C25 5.69493 19.393 0.0874023 12.5 0.0874023ZM15.6086 13.0275H13.575V20.2759H10.5615C10.5615 20.2759 10.5615 16.3153 10.5615 13.0275H9.12904V10.4656H10.5615V8.8086C10.5615 7.62184 11.1254 5.76743 13.6027 5.76743L15.8357 5.77599V8.2628C15.8357 8.2628 14.4788 8.2628 14.2149 8.2628C13.9511 8.2628 13.576 8.39472 13.576 8.96066V10.4661H15.872L15.6086 13.0275Z" fill="white"/>
</svg>
