<svg width="24" height="22" viewBox="0 0 24 22" fill="none" xmlns="http://www.w3.org/2000/svg">
<path d="M20.5 4H17V2.5C17 2.10218 16.842 1.72064 16.5607 1.43934C16.2794 1.15804 15.8978 1 15.5 1H8.5C8.10218 1 7.72064 1.15804 7.43934 1.43934C7.15804 1.72064 7 2.10218 7 2.5V4H3.5C2.83696 4 2.20107 4.26339 1.73223 4.73223C1.26339 5.20107 1 5.83696 1 6.5V12.5C1 12.6326 1.05268 12.7598 1.14645 12.8536C1.24021 12.9473 1.36739 13 1.5 13H2V18.5C2 19.163 2.26339 19.7989 2.73223 20.2678C3.20107 20.7366 3.83696 21 4.5 21H19.5C20.163 21 20.7989 20.7366 21.2678 20.2678C21.7366 19.7989 22 19.163 22 18.5V13H22.5C22.6326 13 22.7598 12.9473 22.8536 12.8536C22.9473 12.7598 23 12.6326 23 12.5V6.5C23 5.83696 22.7366 5.20107 22.2678 4.73223C21.7989 4.26339 21.163 4 20.5 4ZM8 2.5C8 2.36739 8.05268 2.24021 8.14645 2.14645C8.24021 2.05268 8.36739 2 8.5 2H15.5C15.6326 2 15.7598 2.05268 15.8536 2.14645C15.9473 2.24021 16 2.36739 16 2.5V4H8V2.5ZM22 12H15.5V13H21V18.5C21 18.8978 20.842 19.2794 20.5607 19.5607C20.2794 19.842 19.8978 20 19.5 20H4.5C4.10218 20 3.72064 19.842 3.43934 19.5607C3.15804 19.2794 3 18.8978 3 18.5V13H8.5V12H2V6.5C2 6.10218 2.15804 5.72064 2.43934 5.43934C2.72064 5.15804 3.10218 5 3.5 5H20.5C20.8978 5 21.2794 5.15804 21.5607 5.43934C21.842 5.72064 22 6.10218 22 6.5V12ZM13 9.5H11C10.6022 9.5 10.2206 9.65804 9.93934 9.93934C9.65804 10.2206 9.5 10.6022 9.5 11V14C9.5 14.3978 9.65804 14.7794 9.93934 15.0607C10.2206 15.342 10.6022 15.5 11 15.5H13C13.3978 15.5 13.7794 15.342 14.0607 15.0607C14.342 14.7794 14.5 14.3978 14.5 14V11C14.5 10.6022 14.342 10.2206 14.0607 9.93934C13.7794 9.65804 13.3978 9.5 13 9.5ZM13.5 14C13.5 14.1326 13.4473 14.2598 13.3536 14.3536C13.2598 14.4473 13.1326 14.5 13 14.5H11C10.8674 14.5 10.7402 14.4473 10.6464 14.3536C10.5527 14.2598 10.5 14.1326 10.5 14V11C10.5 10.8674 10.5527 10.7402 10.6464 10.6464C10.7402 10.5527 10.8674 10.5 11 10.5H13C13.1326 10.5 13.2598 10.5527 13.3536 10.6464C13.4473 10.7402 13.5 10.8674 13.5 11V14ZM11.5 12H12.5V13H11.5V12Z" fill="#02897A" stroke="#02897A" stroke-width="0.75"/>
</svg>
