<svg width="18" height="17" viewBox="0 0 18 17" fill="none" xmlns="http://www.w3.org/2000/svg">
<path fill-rule="evenodd" clip-rule="evenodd" d="M17.4608 0.63239C17.7011 0.872713 17.7011 1.26235 17.4608 1.50268L8.43516 10.5283C8.19484 10.7686 7.8052 10.7686 7.56488 10.5283L5.10334 8.06678C4.86302 7.82646 4.86302 7.43682 5.10334 7.19649C5.34366 6.95617 5.7333 6.95617 5.97362 7.19649L8.00002 9.22289L16.5905 0.63239C16.8308 0.392068 17.2205 0.392068 17.4608 0.63239Z" fill="#02897A"/>
<path fill-rule="evenodd" clip-rule="evenodd" d="M2.25641 1.68292C1.98439 1.68292 1.72352 1.79098 1.53117 1.98332C1.33883 2.17567 1.23077 2.43654 1.23077 2.70856V14.1957C1.23077 14.4678 1.33883 14.7286 1.53117 14.921C1.72352 15.1133 1.98439 15.2214 2.25641 15.2214H13.7436C14.0156 15.2214 14.2765 15.1133 14.4688 14.921C14.6612 14.7286 14.7692 14.4678 14.7692 14.1957V8.45215C14.7692 8.11228 15.0447 7.83676 15.3846 7.83676C15.7245 7.83676 16 8.11228 16 8.45215V14.1957C16 14.7942 15.7623 15.3681 15.3391 15.7913C14.916 16.2144 14.342 16.4521 13.7436 16.4521H2.25641C1.65797 16.4521 1.08405 16.2144 0.660887 15.7913C0.237728 15.3681 0 14.7942 0 14.1957V2.70856C0 2.11012 0.237728 1.53619 0.660887 1.11304C1.08405 0.689877 1.65797 0.452148 2.25641 0.452148H11.2821C11.6219 0.452148 11.8974 0.727666 11.8974 1.06753C11.8974 1.4074 11.6219 1.68292 11.2821 1.68292H2.25641Z" fill="#02897A"/>
</svg>
