<svg width="13" height="15" viewBox="0 0 13 15" fill="none" xmlns="http://www.w3.org/2000/svg">
<path fill-rule="evenodd" clip-rule="evenodd" d="M3.93939 0.576923C3.93939 0.258297 4.20395 0 4.5303 0H8.4697C8.79605 0 9.06061 0.258297 9.06061 0.576923C9.06061 0.895549 8.79605 1.15385 8.4697 1.15385H4.5303C4.20395 1.15385 3.93939 0.895549 3.93939 0.576923ZM0 8.51538C0 4.947 2.89702 2.03077 6.5 2.03077C10.103 2.03077 13 4.947 13 8.51538C13 12.0838 10.103 15 6.5 15C2.89702 15 0 12.0838 0 8.51538ZM6.5 4.34083C6.82635 4.34083 7.09091 4.59913 7.09091 4.91775V8.07856C7.09091 8.18464 7.13928 8.2809 7.21565 8.34198L9.14719 9.88684C9.39965 10.0888 9.43665 10.4523 9.22984 10.6987C9.02303 10.9452 8.65072 10.9813 8.39826 10.7794L6.46672 9.23456C6.11179 8.95068 5.90909 8.52467 5.90909 8.07856V4.91775C5.90909 4.59913 6.17365 4.34083 6.5 4.34083Z" fill="#475E69"/>
</svg>
