<svg width="15" height="13" viewBox="0 0 15 13" fill="none" xmlns="http://www.w3.org/2000/svg">
<path fill-rule="evenodd" clip-rule="evenodd" d="M13.7286 1.17174C13.9576 1.40073 13.9576 1.772 13.7286 2.00099L7.27863 8.45098C7.04964 8.67997 6.67838 8.67997 6.44939 8.45098L4.6903 6.69189C4.46131 6.4629 4.46131 6.09164 4.6903 5.86265C4.91929 5.63366 5.29055 5.63366 5.51954 5.86265L6.86401 7.20712L12.8994 1.17174C13.1284 0.942753 13.4996 0.942753 13.7286 1.17174Z" fill="#22343D" stroke="#22343D" stroke-width="0.5" stroke-linecap="round" stroke-linejoin="round"/>
<path fill-rule="evenodd" clip-rule="evenodd" d="M2.75909 2.17273C2.60358 2.17273 2.45443 2.2345 2.34447 2.34447C2.2345 2.45443 2.17273 2.60358 2.17273 2.75909V10.9682C2.17273 11.1237 2.2345 11.2728 2.34447 11.3828C2.45443 11.4928 2.60358 11.5545 2.75909 11.5545H10.9682C11.1237 11.5545 11.2728 11.4928 11.3828 11.3828C11.4928 11.2728 11.5545 11.1237 11.5545 10.9682V6.86364C11.5545 6.5398 11.8171 6.27727 12.1409 6.27727C12.4647 6.27727 12.7273 6.5398 12.7273 6.86364V10.9682C12.7273 11.4347 12.5419 11.8822 12.212 12.212C11.8822 12.5419 11.4347 12.7273 10.9682 12.7273H2.75909C2.29255 12.7273 1.84512 12.5419 1.51523 12.212C1.18533 11.8822 1 11.4347 1 10.9682V2.75909C1 2.29255 1.18533 1.84512 1.51523 1.51523C1.84512 1.18533 2.29255 1 2.75909 1H9.20909C9.53293 1 9.79545 1.26252 9.79545 1.58636C9.79545 1.9102 9.53293 2.17273 9.20909 2.17273H2.75909Z" fill="#22343D" stroke="#22343D" stroke-width="0.5" stroke-linecap="round" stroke-linejoin="round"/>
</svg>
