<svg width="20" height="18" viewBox="0 0 20 18" fill="none" xmlns="http://www.w3.org/2000/svg">
<path d="M17.6923 3.07692H13.0769V2.30769C13.0763 1.69586 12.8329 1.10928 12.4003 0.67665C11.9676 0.244019 11.3811 0.000671907 10.7692 0H9.23077C8.61894 0.000671907 8.03236 0.244019 7.59973 0.67665C7.1671 1.10928 6.92375 1.69586 6.92308 2.30769V3.07692H2.30769C1.69586 3.07759 1.10928 3.32094 0.67665 3.75357C0.244019 4.1862 0.000671907 4.77278 0 5.38461V9.23077H20V5.38461C19.9993 4.77278 19.756 4.1862 19.3234 3.75357C18.8907 3.32094 18.3041 3.07759 17.6923 3.07692ZM8.46154 2.30769C8.4618 2.10376 8.54293 1.90826 8.68713 1.76406C8.83134 1.61985 9.02684 1.53873 9.23077 1.53846H10.7692C10.9732 1.53864 11.1687 1.61975 11.313 1.76397C11.4572 1.90819 11.5383 2.10374 11.5385 2.30769V3.07692H8.46154V2.30769ZM10.7692 10.7692V11.5385H9.23077V10.7692H10.7692ZM12.3077 10.7692H20V15.3846C19.9993 15.9964 19.756 16.583 19.3234 17.0157C18.8907 17.4483 18.3041 17.6916 17.6923 17.6923H2.30769C1.69586 17.6916 1.10928 17.4483 0.67665 17.0157C0.244019 16.583 0.000671907 15.9964 0 15.3846V10.7692H7.69231V12.3077C7.69231 12.5117 7.77335 12.7074 7.91761 12.8516C8.06187 12.9959 8.25753 13.0769 8.46154 13.0769H11.5385C11.7425 13.0769 11.9381 12.9959 12.0824 12.8516C12.2266 12.7074 12.3077 12.5117 12.3077 12.3077V10.7692Z" fill="#02897A"/>
</svg>
