<svg width="20" height="15" viewBox="0 0 20 15" fill="none" xmlns="http://www.w3.org/2000/svg">
<path d="M19.8675 6.90644C17.6931 2.31212 14.4062 0 9.99999 0C5.59148 0 2.30689 2.31212 0.132451 6.90874C0.0452335 7.09398 0 7.29629 0 7.50115C0 7.70601 0.0452335 7.90832 0.132451 8.09356C2.30689 12.6879 5.59378 15 9.99999 15C14.4085 15 17.6931 12.6879 19.8675 8.09126C20.0442 7.71856 20.0442 7.28604 19.8675 6.90644ZM9.99999 13.3436C6.30024 13.3436 3.59137 11.4617 1.68071 7.5C3.59137 3.53834 6.30024 1.65644 9.99999 1.65644C13.6997 1.65644 16.4086 3.53834 18.3193 7.5C16.4109 11.4617 13.702 13.3436 9.99999 13.3436ZM9.90825 3.45092C7.67876 3.45092 5.87131 5.2638 5.87131 7.5C5.87131 9.7362 7.67876 11.5491 9.90825 11.5491C12.1377 11.5491 13.9452 9.7362 13.9452 7.5C13.9452 5.2638 12.1377 3.45092 9.90825 3.45092ZM9.90825 10.0767C8.48844 10.0767 7.33929 8.92408 7.33929 7.5C7.33929 6.07592 8.48844 4.92331 9.90825 4.92331C11.3281 4.92331 12.4772 6.07592 12.4772 7.5C12.4772 8.92408 11.3281 10.0767 9.90825 10.0767Z" fill="#979797"/>
</svg>
