<svg width="18" height="18" viewBox="0 0 18 18" fill="none" xmlns="http://www.w3.org/2000/svg">
<path d="M8.24993 16.4999C3.70122 16.4999 0 12.7986 0 8.24993C0 3.70122 3.70122 0 8.24993 0C12.7986 0 16.4999 3.70122 16.4999 8.24993C16.4999 12.7986 12.7986 16.4999 8.24993 16.4999ZM8.24993 1.49999C4.52846 1.49999 1.49999 4.52771 1.49999 8.24993C1.49999 11.9722 4.52846 14.9999 8.24993 14.9999C11.9714 14.9999 14.9999 11.9722 14.9999 8.24993C14.9999 4.52771 11.9714 1.49999 8.24993 1.49999Z" fill="white"/>
<path d="M17.2501 18C17.0581 18 16.8661 17.9265 16.7199 17.7802L13.1237 14.184C12.8312 13.8907 12.8312 13.416 13.1237 13.1235C13.4169 12.8303 13.8917 12.8303 14.1849 13.1235L17.7804 16.7197C18.0736 17.013 18.0736 17.487 17.7804 17.7802C17.6341 17.9265 17.4421 18 17.2501 18Z" fill="white"/>
</svg>
