<svg width="34" height="33" viewBox="0 0 34 33" fill="none" xmlns="http://www.w3.org/2000/svg">
<circle cx="17.3213" cy="16.5" r="16.5" fill="url(#paint0_linear_204:170)"/>
<path d="M17.1724 8.0095C13.1783 8.0095 9.3855 7.65081 7.9368 11.4042C7.3384 12.9545 7.4253 14.9677 7.4253 17.8505C7.4253 20.3802 7.345 22.7577 7.9368 24.2957C9.3822 28.0514 13.2058 27.6916 17.1702 27.6916C20.9949 27.6916 24.9384 28.0936 26.4047 24.2957C27.0042 22.73 26.9162 20.7467 26.9162 17.8505C26.9162 14.0061 27.1263 11.5242 25.2794 9.66078C23.4094 7.77297 20.8805 8.0095 17.168 8.0095H17.1724ZM16.299 9.78293C21.0796 9.77516 24.8911 9.10887 25.1056 13.8728C25.1848 15.6374 25.1848 20.0593 25.1056 21.8238C24.8977 26.4179 21.4327 25.9137 17.1735 25.9137C13.4203 25.9137 11.5591 26.0481 10.3051 24.781C9.0324 23.4962 9.1842 21.6595 9.1842 17.8461C9.1842 13.3253 8.7607 10.0439 13.2355 9.83623C14.1342 9.79514 14.4829 9.78293 16.299 9.78071V9.78293ZM22.3754 11.4164C21.7297 11.4164 21.2061 11.945 21.2061 12.5969C21.2061 13.2487 21.7297 13.7773 22.3754 13.7773C23.0211 13.7773 23.5447 13.2487 23.5447 12.5969C23.5447 11.945 23.0211 11.4164 22.3754 11.4164ZM17.1724 12.7968C14.4081 12.7968 12.1674 15.0599 12.1674 17.8505C12.1674 20.6412 14.4081 22.9032 17.1724 22.9032C19.9367 22.9032 22.1763 20.6412 22.1763 17.8505C22.1763 15.0599 19.9367 12.7968 17.1724 12.7968ZM17.1724 14.5702C18.9665 14.5702 20.4207 16.0394 20.4207 17.8505C20.4207 19.6617 18.9665 21.1309 17.1724 21.1309C15.3783 21.1309 13.9241 19.6617 13.9241 17.8505C13.9241 16.0382 15.3783 14.5702 17.1724 14.5702Z" fill="white"/>
<defs>
<linearGradient id="paint0_linear_204:170" x1="28.8713" y1="4.39999" x2="7.97128" y2="30.25" gradientUnits="userSpaceOnUse">
<stop stop-color="#CD3AA2"/>
<stop offset="0.565217" stop-color="#FD5343"/>
<stop offset="1" stop-color="#FFD153"/>
</linearGradient>
</defs>
</svg>
