<svg width="18" height="20" viewBox="0 0 18 20" fill="none" xmlns="http://www.w3.org/2000/svg">
<path d="M8.72369 0C5.62566 0 3.1008 2.5248 3.1008 5.62289C3.09989 5.68993 3.10978 5.75668 3.13009 5.82057C3.18329 7.79271 4.03771 9.51883 5.04343 11.1189C6.08181 12.7709 7.28526 14.3212 8.05744 15.9022C8.10819 16.0066 8.187 16.0948 8.28505 16.1569C8.38309 16.219 8.49649 16.2525 8.61254 16.2538C8.72859 16.2551 8.84269 16.224 8.94207 16.1641C9.04145 16.1041 9.12217 16.0177 9.17518 15.9144C9.98594 14.3347 11.2512 12.7832 12.3429 11.1311C13.4347 9.47908 14.3661 7.69488 14.3661 5.63265C14.3671 5.55344 14.353 5.47476 14.3246 5.40081C14.205 2.40721 11.7458 0 8.72369 0ZM8.72369 1.24953C11.1464 1.24953 13.0971 3.20018 13.0971 5.62289C13.0963 5.66794 13.1004 5.71295 13.1093 5.75712C13.072 7.39125 12.3176 8.90438 11.3009 10.4429C10.4414 11.7435 9.46965 13.0864 8.63095 14.4819C7.83485 13.0924 6.91767 11.7518 6.1026 10.4551C5.11064 8.87691 4.36986 7.32427 4.36986 5.63265C4.36984 5.59583 4.36658 5.55908 4.36009 5.52283C4.41424 3.14788 6.33525 1.24953 8.72369 1.24953ZM8.72369 3.75104C7.69595 3.75104 6.8494 4.59759 6.8494 5.62533C6.8494 6.65307 7.69595 7.49963 8.72369 7.49963C9.75144 7.49963 10.598 6.65307 10.598 5.62533C10.598 4.59759 9.75144 3.75104 8.72369 3.75104ZM8.72369 5.00057C9.07614 5.00057 9.34846 5.27296 9.34846 5.62533C9.34846 5.97783 9.07614 6.2501 8.72369 6.2501C8.37124 6.2501 8.09893 5.97783 8.09893 5.62533C8.09893 5.27296 8.37124 5.00057 8.72369 5.00057ZM13.8341 11.5313C13.6881 11.5312 13.5467 11.5823 13.4345 11.6756C13.3222 11.7688 13.2461 11.8985 13.2195 12.042C13.1928 12.1855 13.2172 12.3338 13.2885 12.4612C13.3597 12.5886 13.4733 12.687 13.6096 12.7394C14.8549 13.2438 15.6555 13.9052 16.0012 14.5136C16.347 15.122 16.3389 15.6478 15.8865 16.2952C14.9818 17.5898 12.0935 18.7363 8.79691 18.7503C5.50031 18.764 2.57185 17.647 1.61454 16.3489C1.13588 15.6997 1.11215 15.1703 1.43394 14.5649C1.75574 13.9596 2.52679 13.2925 3.75241 12.7784C3.83033 12.7483 3.90141 12.7028 3.96145 12.6448C4.0215 12.5867 4.06929 12.5172 4.102 12.4403C4.13471 12.3634 4.15167 12.2808 4.15188 12.1972C4.15209 12.1137 4.13556 12.031 4.10324 11.9539C4.07093 11.8769 4.02349 11.8071 3.96374 11.7487C3.904 11.6904 3.83315 11.6446 3.75539 11.614C3.67763 11.5835 3.59454 11.5689 3.51103 11.571C3.42752 11.5732 3.34529 11.592 3.26919 11.6265C1.86892 12.2138 0.849392 13.0036 0.330842 13.9791C-0.187709 14.9545 -0.0979616 16.132 0.609058 17.0908C2.0231 19.0084 5.24616 20.0151 8.80423 19.9998C12.3623 19.9848 15.5551 18.9536 16.9115 17.0127C17.5898 16.0422 17.6357 14.8612 17.0873 13.8962C16.5388 12.9311 15.4959 12.1544 14.0781 11.5801C14.0009 11.5477 13.9179 11.5311 13.8341 11.5313Z" fill="white"/>
</svg>
