<svg width="13" height="18" viewBox="0 0 13 18" fill="none" xmlns="http://www.w3.org/2000/svg">
<path fill-rule="evenodd" clip-rule="evenodd" d="M3.2764 0.843094C5.30336 -0.299453 7.79483 -0.279483 9.80277 0.895405C11.791 2.09422 12.9994 4.23376 12.9881 6.5353C12.9418 8.82174 11.6461 10.971 10.0264 12.6325C9.09162 13.5958 8.04586 14.4475 6.91053 15.1704C6.7936 15.236 6.66552 15.2799 6.53261 15.3C6.40469 15.2947 6.28011 15.258 6.17012 15.1933C4.43681 14.1071 2.91617 12.7206 1.68136 11.1006C0.648103 9.74823 0.0610779 8.11441 1.07778e-06 6.42098C-0.00134027 4.11502 1.24944 1.98564 3.2764 0.843094ZM4.45153 7.37547C4.7925 8.19092 5.5973 8.72283 6.49017 8.72283C7.07511 8.7269 7.63739 8.49961 8.05173 8.0916C8.46608 7.68358 8.69806 7.12874 8.69599 6.55071C8.69911 5.6684 8.16366 4.87125 7.33966 4.53146C6.51565 4.19168 5.56563 4.37628 4.93317 4.99908C4.30071 5.62188 4.11057 6.56002 4.45153 7.37547Z" fill="#B5BFC3"/>
<ellipse opacity="0.4" cx="6.4912" cy="17.1002" rx="4.63866" ry="0.9" fill="#475E69"/>
</svg>
