<svg width="146" height="34" viewBox="0 0 146 34" fill="none" xmlns="http://www.w3.org/2000/svg">
<path d="M15.8315 24.2988L22.2036 1.00781H30.8169L20.0503 33H11.6128L0.934082 1.00781H9.48145L15.8315 24.2988ZM59.8867 33H52.2183L40.8804 13.0928V33H33.168V1.00781H40.8804L52.1963 20.915V1.00781H59.8867V33ZM77.5088 1.00781H85.1992V22.9585C85.1992 24.9946 84.7231 26.811 83.771 28.4077C82.8335 30.0044 81.5151 31.2422 79.8159 32.1211C78.1313 33 76.249 33.4395 74.1689 33.4395C70.6826 33.4395 67.9727 32.5605 66.0391 30.8027C64.1055 29.0449 63.1387 26.5547 63.1387 23.332H70.873C70.873 24.7969 71.1221 25.8589 71.6201 26.5181C72.1328 27.1772 72.9824 27.5068 74.1689 27.5068C75.2383 27.5068 76.0586 27.1113 76.6299 26.3203C77.2158 25.5146 77.5088 24.394 77.5088 22.9585V1.00781ZM117.169 17.6631C117.169 20.7832 116.591 23.5444 115.434 25.9468C114.276 28.3491 112.628 30.2021 110.49 31.5059C108.366 32.7949 105.941 33.4395 103.217 33.4395C100.492 33.4395 98.0752 32.8169 95.9658 31.5718C93.8564 30.312 92.2085 28.5176 91.022 26.1885C89.8501 23.8594 89.2349 21.186 89.1763 18.1685V16.3667C89.1763 13.2319 89.7476 10.4707 90.8901 8.08301C92.0474 5.68066 93.6953 3.82764 95.834 2.52393C97.9873 1.22021 100.434 0.568359 103.173 0.568359C105.883 0.568359 108.3 1.21289 110.424 2.50195C112.548 3.79102 114.196 5.62939 115.368 8.01709C116.554 10.3901 117.155 13.1147 117.169 16.1909V17.6631ZM109.325 16.3228C109.325 13.144 108.791 10.7344 107.721 9.09375C106.667 7.43848 105.15 6.61084 103.173 6.61084C99.3057 6.61084 97.2622 9.51123 97.0425 15.312L97.0205 17.6631C97.0205 20.7979 97.5405 23.2075 98.5806 24.8921C99.6206 26.5767 101.166 27.4189 103.217 27.4189C105.165 27.4189 106.667 26.5913 107.721 24.936C108.776 23.2808 109.311 20.9004 109.325 17.7949V16.3228ZM121.146 33V1.00781H132.638C136.754 1.00781 139.882 1.76221 142.021 3.271C144.174 4.77979 145.25 6.96973 145.25 9.84082C145.25 11.4961 144.87 12.9097 144.108 14.0815C143.346 15.2534 142.226 16.1177 140.746 16.6743C142.416 17.1138 143.698 17.9341 144.591 19.1353C145.485 20.3364 145.932 21.8013 145.932 23.5298C145.932 26.6646 144.936 29.0229 142.943 30.605C140.966 32.1724 138.029 32.9707 134.132 33H121.146ZM128.859 19.3989V27.0674H133.913C135.304 27.0674 136.374 26.7524 137.121 26.1226C137.868 25.478 138.241 24.5771 138.241 23.4199C138.241 20.7539 136.916 19.4136 134.264 19.3989H128.859ZM128.859 14.3452H132.88C134.564 14.3306 135.766 14.0229 136.483 13.4224C137.201 12.8218 137.56 11.9355 137.56 10.7637C137.56 9.41602 137.172 8.44922 136.396 7.86328C135.619 7.2627 134.367 6.9624 132.638 6.9624H128.859V14.3452Z" fill="#02897A"/>
</svg>
