<svg width="25" height="25" viewBox="0 0 25 25" fill="none" xmlns="http://www.w3.org/2000/svg">
<circle cx="12.5" cy="12.5" r="12.5" fill="#F2F2F2"/>
<path d="M12.5 5C8.358 5 5 8.358 5 12.5C5 16.642 8.358 20 12.5 20C16.642 20 20 16.642 20 12.5C20 8.358 16.642 5 12.5 5ZM13.357 12C14.814 12 16 13.121 16 14.5C16 15.879 14.814 17 13.357 17H13V17.5C13 17.6326 12.9473 17.7598 12.8536 17.8536C12.7598 17.9473 12.6326 18 12.5 18C12.3674 18 12.2402 17.9473 12.1464 17.8536C12.0527 17.7598 12 17.6326 12 17.5V17H11.643C10.186 17 9 15.879 9 14.5C9 14.3674 9.05268 14.2402 9.14645 14.1464C9.24021 14.0527 9.36739 14 9.5 14C9.63261 14 9.75979 14.0527 9.85355 14.1464C9.94732 14.2402 10 14.3674 10 14.5C10 15.327 10.737 16 11.643 16H12V13H11.643C10.186 13 9 11.879 9 10.5C9 9.121 10.186 8 11.643 8H12V7.5C12 7.36739 12.0527 7.24021 12.1464 7.14645C12.2402 7.05268 12.3674 7 12.5 7C12.6326 7 12.7598 7.05268 12.8536 7.14645C12.9473 7.24021 13 7.36739 13 7.5V8H13.357C14.814 8 16 9.121 16 10.5C16 10.6326 15.9473 10.7598 15.8536 10.8536C15.7598 10.9473 15.6326 11 15.5 11C15.3674 11 15.2402 10.9473 15.1464 10.8536C15.0527 10.7598 15 10.6326 15 10.5C15 9.673 14.263 9 13.357 9H13V12H13.357ZM10 10.5C10 11.327 10.737 12 11.643 12H12V9H11.643C10.737 9 10 9.673 10 10.5ZM13.357 16C14.263 16 15 15.327 15 14.5C15 13.673 14.263 13 13.357 13H13V16H13.357Z" fill="black"/>
</svg>
