<svg width="26" height="19" viewBox="0 0 26 19" fill="none" xmlns="http://www.w3.org/2000/svg">
<path d="M23.3621 0.0874023H5.15857C4.71657 0.0884057 4.29273 0.270677 3.97878 0.594767C3.66484 0.918856 3.48604 1.35869 3.48108 1.81908C3.0427 1.82418 2.62366 2.00785 2.31366 2.33077C2.00366 2.65368 1.82734 3.09018 1.82244 3.54683C1.38047 3.55199 0.95823 3.73824 0.647104 4.06527C0.335978 4.3923 0.160997 4.8338 0.160034 5.29421V16.3361C0.160033 16.7999 0.336647 17.2447 0.651129 17.5731C0.965611 17.9014 1.39228 18.0864 1.83752 18.0874H20.0449C20.4862 18.0854 20.9091 17.9026 21.2222 17.5787C21.5353 17.2547 21.7136 16.8154 21.7186 16.3557C22.1576 16.3506 22.5772 16.1664 22.8873 15.8426C23.1974 15.5189 23.3733 15.0814 23.3772 14.6241C23.8195 14.6199 24.2423 14.434 24.5536 14.1067C24.865 13.7795 25.0396 13.3374 25.0396 12.8767V1.83478C25.0386 1.37167 24.8616 0.927818 24.5472 0.600344C24.2328 0.272871 23.8067 0.0884396 23.3621 0.0874023ZM21.7035 15.5704H3.49616C3.25122 15.5704 3.01631 15.469 2.8431 15.2886C2.6699 15.1082 2.5726 14.8635 2.5726 14.6083V3.56646C2.57257 3.31401 2.6678 3.07166 2.83775 2.89169C3.00771 2.71171 3.23876 2.60854 3.48108 2.60442V12.8767C3.48108 13.3401 3.65782 13.7846 3.97241 14.1123C4.12818 14.2745 4.3131 14.4032 4.51662 14.491C4.72014 14.5789 4.93828 14.6241 5.15857 14.6241H22.6233C22.6203 14.8761 22.5221 15.1168 22.3499 15.2939C22.1777 15.4711 21.9455 15.5704 21.7035 15.5704ZM23.4149 10.3911C23.4149 10.4952 23.3752 10.5951 23.3045 10.6687C23.2338 10.7424 23.1379 10.7837 23.0379 10.7837C22.591 10.7837 22.1625 10.9687 21.8464 11.2978C21.5304 11.627 21.3529 12.0735 21.3529 12.539C21.3529 12.6431 21.3132 12.743 21.2425 12.8166C21.1718 12.8903 21.0759 12.9316 20.976 12.9316H7.54475C7.44477 12.9316 7.34889 12.8903 7.27819 12.8166C7.2075 12.743 7.16778 12.6431 7.16778 12.539C7.16778 12.0735 6.99025 11.627 6.67425 11.2978C6.35825 10.9687 5.92965 10.7837 5.48276 10.7837C5.38278 10.7837 5.2869 10.7424 5.2162 10.6687C5.14551 10.5951 5.10579 10.4952 5.10579 10.3911V4.32431C5.10579 4.22017 5.14551 4.12029 5.2162 4.04665C5.2869 3.97301 5.38278 3.93164 5.48276 3.93164C5.92965 3.93164 6.35825 3.74672 6.67425 3.41755C6.99025 3.08838 7.16778 2.64193 7.16778 2.17641C7.16778 2.07227 7.2075 1.97239 7.27819 1.89875C7.34889 1.82511 7.44477 1.78374 7.54475 1.78374H20.976C21.0759 1.78374 21.1718 1.82511 21.2425 1.89875C21.3132 1.97239 21.3529 2.07227 21.3529 2.17641C21.3529 2.64193 21.5304 3.08838 21.8464 3.41755C22.1625 3.74672 22.591 3.93164 23.0379 3.93164C23.1379 3.93164 23.2338 3.97301 23.3045 4.04665C23.3752 4.12029 23.4149 4.22017 23.4149 4.32431V10.3911Z" fill="#02897A"/>
<path d="M14.2585 3.53516C13.5322 3.53516 12.8221 3.75957 12.2183 4.17999C11.6144 4.60042 11.1438 5.19797 10.866 5.89706C10.5882 6.59614 10.5157 7.36534 10.6577 8.10735C10.7997 8.84936 11.1497 9.53083 11.6636 10.0656C12.1775 10.6003 12.832 10.9642 13.5445 11.1114C14.257 11.2585 14.9953 11.1822 15.6662 10.8921C16.337 10.602 16.9102 10.1112 17.3132 9.48174C17.7162 8.85227 17.9309 8.11244 17.9301 7.35584C17.9281 6.34249 17.5405 5.37129 16.8523 4.65512C16.1641 3.93894 15.2313 3.53619 14.2585 3.53516ZM14.2585 6.96317C14.5148 6.9637 14.7629 7.05805 14.9592 7.22974C15.1555 7.40142 15.2877 7.63952 15.3326 7.90242C15.3775 8.16532 15.3323 8.43629 15.2049 8.66799C15.0774 8.89968 14.8759 9.07736 14.6355 9.16997V9.43306C14.6355 9.5372 14.5957 9.63708 14.5251 9.71072C14.4544 9.78436 14.3585 9.82573 14.2585 9.82573C14.1585 9.82573 14.0626 9.78436 13.9919 9.71072C13.9213 9.63708 13.8815 9.5372 13.8815 9.43306V9.16997C13.6712 9.0898 13.4895 8.94448 13.3608 8.75355C13.232 8.56261 13.1625 8.33521 13.1615 8.10191C13.1615 7.99777 13.2013 7.89789 13.2719 7.82425C13.3426 7.75061 13.4385 7.70924 13.5385 7.70924C13.6385 7.70924 13.7344 7.75061 13.8051 7.82425C13.8757 7.89789 13.9155 7.99777 13.9155 8.10191C13.9104 8.15171 13.9155 8.20207 13.9304 8.2497C13.9452 8.29733 13.9695 8.34118 14.0017 8.3784C14.0338 8.41562 14.0732 8.44538 14.1171 8.46575C14.161 8.48612 14.2085 8.49665 14.2566 8.49665C14.3047 8.49665 14.3522 8.48612 14.3962 8.46575C14.4401 8.44538 14.4794 8.41562 14.5116 8.3784C14.5437 8.34118 14.568 8.29733 14.5829 8.2497C14.5977 8.20207 14.6028 8.15171 14.5978 8.10191C14.5978 8.00818 14.562 7.91829 14.4984 7.85202C14.4348 7.78574 14.3485 7.74851 14.2585 7.74851C14.0012 7.7507 13.7515 7.65796 13.5535 7.48671C13.3556 7.31546 13.2222 7.07675 13.1771 6.81287C13.1319 6.549 13.1779 6.27699 13.3068 6.04504C13.4358 5.81309 13.6394 5.63617 13.8815 5.54563V5.28254C13.8815 5.1784 13.9213 5.07852 13.9919 5.00488C14.0626 4.93124 14.1585 4.88987 14.2585 4.88987C14.3585 4.88987 14.4544 4.93124 14.5251 5.00488C14.5957 5.07852 14.6355 5.1784 14.6355 5.28254V5.55348C14.8448 5.63358 15.0256 5.77846 15.1536 5.96866C15.2816 6.15887 15.3508 6.38532 15.3517 6.61762C15.3517 6.72176 15.312 6.82164 15.2413 6.89528C15.1706 6.96892 15.0747 7.01029 14.9747 7.01029C14.8748 7.01029 14.7789 6.96892 14.7082 6.89528C14.6375 6.82164 14.5978 6.72176 14.5978 6.61762C14.5983 6.57106 14.5898 6.52487 14.573 6.48175C14.5561 6.43864 14.5311 6.39947 14.4995 6.36655C14.4679 6.33363 14.4303 6.30762 14.3889 6.29004C14.3475 6.27247 14.3032 6.26369 14.2585 6.26421C14.1685 6.26421 14.0822 6.30145 14.0186 6.36772C13.955 6.434 13.9192 6.52389 13.9192 6.61762C13.9192 6.71134 13.955 6.80123 14.0186 6.86751C14.0822 6.93379 14.1685 6.97102 14.2585 6.97102V6.96317ZM9.20719 6.96317H8.0763C7.97633 6.96317 7.88044 7.00454 7.80975 7.07818C7.73906 7.15182 7.69934 7.25169 7.69934 7.35584C7.69934 7.45998 7.73906 7.55986 7.80975 7.6335C7.88044 7.70714 7.97633 7.74851 8.0763 7.74851H9.20719C9.30717 7.74851 9.40305 7.70714 9.47375 7.6335C9.54444 7.55986 9.58416 7.45998 9.58416 7.35584C9.58416 7.25169 9.54444 7.15182 9.47375 7.07818C9.40305 7.00454 9.30717 6.96317 9.20719 6.96317ZM20.4332 6.96317H19.3023C19.2023 6.96317 19.1064 7.00454 19.0357 7.07818C18.965 7.15182 18.9253 7.25169 18.9253 7.35584C18.9253 7.45998 18.965 7.55986 19.0357 7.6335C19.1064 7.70714 19.2023 7.74851 19.3023 7.74851H20.4332C20.5331 7.74851 20.629 7.70714 20.6997 7.6335C20.7704 7.55986 20.8101 7.45998 20.8101 7.35584C20.8101 7.25169 20.7704 7.15182 20.6997 7.07818C20.629 7.00454 20.5331 6.96317 20.4332 6.96317Z" fill="#02897A"/>
</svg>
