<svg width="50" height="50" viewBox="0 0 50 50" fill="none" xmlns="http://www.w3.org/2000/svg">
<circle r="25" transform="matrix(-1 0 0 1 25 25)" fill="#00AA97"/>
<path d="M18.6318 15.4588C17.8261 14.7031 17.7856 13.4374 18.5412 12.6318C19.2969 11.8261 20.5626 11.7856 21.3682 12.5412L18.6318 15.4588ZM32 25.2553L33.3682 23.7966C33.7772 24.1801 34.0063 24.7178 33.9999 25.2784C33.9934 25.8391 33.7518 26.3713 33.3341 26.7453L32 25.2553ZM21.3341 37.49C20.5112 38.2268 19.2468 38.157 18.51 37.3341C17.7732 36.5112 17.843 35.2468 18.6659 34.51L21.3341 37.49ZM21.3682 12.5412L33.3682 23.7966L30.6318 26.7141L18.6318 15.4588L21.3682 12.5412ZM33.3341 26.7453L21.3341 37.49L18.6659 34.51L30.6659 23.7653L33.3341 26.7453Z" fill="white"/>
</svg>
