<svg width="29" height="22" viewBox="0 0 29 22" fill="none" xmlns="http://www.w3.org/2000/svg">
<path fill-rule="evenodd" clip-rule="evenodd" d="M21.0258 11.5975C21.7902 11.0602 22.4141 10.3468 22.8447 9.51757C23.2754 8.68836 23.5001 7.7677 23.5 6.83333C23.5 6.06729 23.3491 5.30875 23.056 4.60101C22.7628 3.89328 22.3331 3.25022 21.7915 2.70854C21.2498 2.16687 20.6067 1.73719 19.899 1.44404C19.1913 1.15088 18.4327 1 17.6667 1C16.9006 1 16.1421 1.15088 15.4344 1.44404C14.7266 1.73719 14.0836 2.16687 13.5419 2.70854C13.0002 3.25022 12.5705 3.89328 12.2774 4.60101C11.9842 5.30875 11.8333 6.06729 11.8333 6.83333C11.8332 7.7677 12.058 8.68836 12.4886 9.51757C12.9192 10.3468 13.5431 11.0602 14.3075 11.5975C10.44 12.9783 7.66667 16.6583 7.66667 21H27.6667C27.6667 16.6583 24.8933 12.9783 21.0258 11.5975ZM12.6667 6.83333C12.6667 5.50725 13.1935 4.23548 14.1311 3.2978C15.0688 2.36012 16.3406 1.83333 17.6667 1.83333C18.9928 1.83333 20.2645 2.36012 21.2022 3.2978C22.1399 4.23548 22.6667 5.50725 22.6667 6.83333C22.6665 7.84351 22.36 8.82989 21.7876 9.66229C21.2153 10.4947 20.404 11.134 19.4608 11.4958L19.375 11.5275C19.2321 11.5793 19.087 11.6246 18.94 11.6633C18.8958 11.675 18.8517 11.6875 18.8067 11.6975C18.6668 11.7297 18.5255 11.7558 18.3833 11.7758C18.335 11.7825 18.2867 11.7925 18.2383 11.7983C18.0508 11.82 17.86 11.8333 17.6667 11.8333C17.4733 11.8333 17.2825 11.82 17.095 11.7983C17.0458 11.7925 16.9983 11.7833 16.95 11.7758C16.8079 11.7557 16.6666 11.7295 16.5267 11.6975L16.3933 11.6633C16.2464 11.6246 16.1012 11.5793 15.9583 11.5275L15.8725 11.4958C14.9294 11.134 14.1181 10.4947 13.5457 9.66229C12.9734 8.82989 12.6669 7.84351 12.6667 6.83333ZM15.2833 12.1542C16.0326 12.4915 16.845 12.6659 17.6667 12.6659C18.4884 12.6659 19.3007 12.4915 20.05 12.1542C23.695 13.135 26.4425 16.3017 26.7917 20.1667H8.54167C8.89084 16.3017 11.6383 13.135 15.2833 12.1542Z" fill="#02897A" stroke="#02897A"/>
<path fill-rule="evenodd" clip-rule="evenodd" d="M1.875 20.1667C2.22417 16.3017 4.97083 13.135 8.61667 12.1542C9.345 12.4808 10.15 12.6667 11 12.6667C11.1233 12.6667 11.2442 12.6542 11.3658 12.6467C12.0247 12.2152 12.7321 11.8627 13.4733 11.5967C13.36 11.5167 13.2558 11.425 13.1483 11.3375C13.0317 11.3925 12.915 11.4492 12.7933 11.4958L12.7075 11.5275C12.5646 11.5793 12.4195 11.6246 12.2725 11.6633C12.2283 11.675 12.1842 11.6875 12.1392 11.6975C11.9992 11.7297 11.858 11.7558 11.7158 11.7758C11.6675 11.7825 11.6192 11.7925 11.5708 11.7983C11.3842 11.82 11.1933 11.8333 11 11.8333C10.8067 11.8333 10.6158 11.82 10.4283 11.7983C10.3792 11.7925 10.3317 11.7833 10.2833 11.7758C10.1412 11.7557 9.99995 11.7295 9.86 11.6975L9.72667 11.6633C9.5797 11.6246 9.43456 11.5793 9.29167 11.5275L9.20583 11.4958C8.26268 11.134 7.4514 10.4947 6.87906 9.66229C6.30672 8.82989 6.00022 7.84351 6 6.83333C6 5.50725 6.52678 4.23548 7.46447 3.2978C8.40215 2.36012 9.67392 1.83333 11 1.83333C11.7667 1.83333 12.49 2.01083 13.14 2.31917C13.3825 2.12 13.6442 1.94417 13.9167 1.78667C13.031 1.27134 12.0247 0.999907 11 1C9.4529 1 7.96917 1.61458 6.87521 2.70854C5.78125 3.80251 5.16667 5.28624 5.16667 6.83333C5.16655 7.7677 5.39129 8.68836 5.82193 9.51757C6.25256 10.3468 6.87643 11.0602 7.64083 11.5975C3.77333 12.9783 1 16.6583 1 21H6.83333C6.83333 20.7192 6.84583 20.4417 6.86833 20.1667H1.875Z" fill="#02897A" stroke="#02897A"/>
</svg>
