<svg width="20" height="18" viewBox="0 0 20 18" fill="none" xmlns="http://www.w3.org/2000/svg">
<path d="M15.9231 12.4615H17.3077V15.9231C17.3077 16.4739 17.0889 17.0022 16.6994 17.3917C16.3099 17.7812 15.7816 18 15.2308 18H2.07692C1.52609 18 0.997815 17.7812 0.608317 17.3917C0.218818 17.0022 0 16.4739 0 15.9231V2.07692C0 1.52609 0.218818 0.997815 0.608317 0.608317C0.997815 0.218818 1.52609 0 2.07692 0H15.2308C15.7816 0 16.3099 0.218818 16.6994 0.608317C17.0889 0.997815 17.3077 1.52609 17.3077 2.07692V2.87308H15.9231V2.07692C15.9231 1.89331 15.8501 1.71722 15.7203 1.58739C15.5905 1.45755 15.4144 1.38462 15.2308 1.38462H2.07692C1.89331 1.38462 1.71722 1.45755 1.58739 1.58739C1.45755 1.71722 1.38462 1.89331 1.38462 2.07692V15.9231C1.38462 16.1067 1.45755 16.2828 1.58739 16.4126C1.71722 16.5424 1.89331 16.6154 2.07692 16.6154H15.2308C15.4144 16.6154 15.5905 16.5424 15.7203 16.4126C15.8501 16.2828 15.9231 16.1067 15.9231 15.9231V12.4615ZM19.62 6.34154C19.6207 6.61536 19.5672 6.88661 19.4626 7.13968C19.3581 7.39275 19.2045 7.62265 19.0108 7.81615L17.91 8.91L12.6692 14.1577C12.5622 14.2635 12.4237 14.3315 12.2746 14.3515L9.99 14.6838H9.88615C9.70354 14.6812 9.52936 14.6066 9.40154 14.4762C9.32451 14.4005 9.26624 14.3079 9.23138 14.2057C9.19652 14.1036 9.18603 13.9946 9.20077 13.8877L9.53308 11.6031C9.5531 11.454 9.62115 11.3154 9.72692 11.2085L14.9746 5.96769L16.0685 4.84615C16.4658 4.46977 16.9923 4.25999 17.5396 4.25999C18.0869 4.25999 18.6134 4.46977 19.0108 4.84615C19.207 5.04211 19.362 5.27538 19.4667 5.53222C19.5713 5.78905 19.6234 6.06423 19.62 6.34154ZM16.4423 8.41846L15.4662 7.44231L10.8692 12.0323L10.7031 13.1538L11.8523 12.9877L16.4423 8.41846ZM18.2354 6.34154C18.2328 6.15893 18.1581 5.98474 18.0277 5.85692C17.898 5.72798 17.7225 5.65561 17.5396 5.65561C17.3567 5.65561 17.1813 5.72798 17.0515 5.85692L16.4423 6.46615L17.4185 7.44231L18.0277 6.83308C18.0931 6.76896 18.1451 6.6925 18.1808 6.60812C18.2165 6.52375 18.235 6.43314 18.2354 6.34154ZM8.30769 14.5385V13.1538H3.46154V14.5385H8.30769Z" fill="white"/>
</svg>
