<svg width="25" height="25" viewBox="0 0 25 25" fill="none" xmlns="http://www.w3.org/2000/svg">
<circle cx="12.5" cy="12.5" r="12.5" fill="#F2F2F2"/>
<path d="M17.6524 14.9249L14.7995 13.7022C14.6505 13.6381 14.4879 13.6123 14.3264 13.6271C14.1649 13.6419 14.0097 13.697 13.8749 13.7871L12.3495 14.804C11.4172 14.3505 10.6627 13.5993 10.2052 12.669L10.2053 12.6689L11.2185 11.1207C11.3067 10.9863 11.3602 10.8321 11.3742 10.672C11.3883 10.5118 11.3624 10.3507 11.2989 10.203L10.0751 7.34762C9.99182 7.1538 9.84797 6.99218 9.66512 6.88695C9.48227 6.78172 9.27025 6.73856 9.06081 6.76391C8.23782 6.86973 7.48151 7.27154 6.93315 7.89428C6.38479 8.51702 6.0819 9.31809 6.08105 10.1479C6.08105 14.9843 10.0158 18.919 14.8522 18.919C15.682 18.9182 16.4831 18.6153 17.1058 18.0669C17.7286 17.5185 18.1304 16.7622 18.2362 15.9392C18.2615 15.7298 18.2183 15.5178 18.113 15.3349C18.0078 15.1521 17.8462 15.0082 17.6524 14.9249Z" fill="#22343D"/>
</svg>
