<svg width="20" height="19" viewBox="0 0 20 19" fill="none" xmlns="http://www.w3.org/2000/svg">
<path opacity="0.4" d="M11.9817 3.22823C11.5223 3.14909 11.1005 3.4225 11.0131 3.84071C10.9256 4.25893 11.2197 4.66725 11.6665 4.74909C13.0117 4.99372 14.0504 5.96506 14.3137 7.22419V7.22509C14.3887 7.58754 14.7307 7.85106 15.1247 7.85106C15.1776 7.85106 15.2304 7.84656 15.2842 7.83757C15.731 7.75393 16.0251 7.34651 15.9376 6.92739C15.5446 5.04679 13.9928 3.59428 11.9817 3.22823Z" fill="white"/>
<path opacity="0.4" d="M11.9252 0.0945391C11.71 0.0657589 11.4938 0.125118 11.3218 0.25283C11.145 0.382341 11.0345 0.569413 11.0105 0.778969C10.9595 1.20258 11.2872 1.58572 11.7407 1.63338C14.8684 1.95896 17.2995 4.2317 17.6512 7.15829C17.6982 7.55042 18.0509 7.84632 18.4718 7.84632C18.5035 7.84632 18.5342 7.84452 18.5659 7.84092C18.786 7.81843 18.982 7.7168 19.1204 7.55492C19.2578 7.39303 19.3202 7.19157 19.2952 6.98561C18.8571 3.33411 15.8274 0.500161 11.9252 0.0945391Z" fill="white"/>
<path d="M15.056 11.4937C14.4305 11.3696 13.9356 11.6394 13.4975 11.875C13.0487 12.1178 12.1945 12.7609 11.7064 12.5954C9.20231 11.6385 6.84718 9.60137 5.82768 7.26657C5.64799 6.80159 6.33695 6.00384 6.59543 5.58293C6.84814 5.17461 7.13256 4.70963 7.00284 4.12503C6.88562 3.59889 5.36934 1.80642 4.83316 1.31626C4.47859 0.992479 4.1173 0.814401 3.74544 0.784721C2.34735 0.729859 0.785904 2.46297 0.512051 2.87758C-0.174983 3.76168 -0.170179 4.93807 0.523582 6.36449C2.19553 10.1959 8.51912 15.978 12.6586 17.5897C13.4216 17.9216 14.1211 18.0879 14.7486 18.0879C15.3626 18.0879 15.9093 17.9287 16.3792 17.6131C16.7328 17.4233 18.6757 15.9006 18.6238 14.5669C18.594 14.2269 18.4028 13.8869 18.0588 13.5577C17.5342 13.055 15.6182 11.6043 15.056 11.4937Z" fill="white"/>
</svg>
