<svg width="50" height="50" viewBox="0 0 50 50" fill="none" xmlns="http://www.w3.org/2000/svg">
<circle cx="25" cy="25" r="25" fill="#02897A"/>
<path d="M30.8989 15.4293C31.6883 14.6567 31.7019 13.3905 30.9293 12.6011C30.1567 11.8117 28.8905 11.7981 28.1011 12.5707L30.8989 15.4293ZM18 25.2553L16.6011 23.826C16.2109 24.2078 15.9938 24.7326 16.0001 25.2785C16.0065 25.8244 16.2357 26.344 16.6346 26.7167L18 25.2553ZM28.1346 37.4614C28.9417 38.2155 30.2073 38.1725 30.9614 37.3654C31.7155 36.5583 31.6725 35.2927 30.8654 34.5386L28.1346 37.4614ZM28.1011 12.5707L16.6011 23.826L19.3989 26.6847L30.8989 15.4293L28.1011 12.5707ZM16.6346 26.7167L28.1346 37.4614L30.8654 34.5386L19.3654 23.7939L16.6346 26.7167Z" fill="white"/>
</svg>
