<svg width="16" height="18" viewBox="0 0 16 18" fill="none" xmlns="http://www.w3.org/2000/svg">
<path fill-rule="evenodd" clip-rule="evenodd" d="M7.96154 7.19693e-05L7.86802 3.52438e-05C7.34518 -0.000275396 6.95021 -0.00051003 6.60745 0.0918566C5.68302 0.340972 4.96336 1.06635 4.71676 1.99194C4.62531 2.33519 4.62554 2.73088 4.62584 3.25756L4.62587 3.35083V3.65544H0.692308C0.309957 3.65544 0 3.9654 0 4.34775C0 4.7301 0.309957 5.04005 0.692308 5.04005H1.42014L2.26864 13.5735C2.33358 14.2267 2.38626 14.7565 2.46282 15.1853C2.54194 15.6284 2.65474 16.017 2.86768 16.3734C3.20659 16.9407 3.70541 17.395 4.30166 17.6783C4.67669 17.8565 5.07359 17.9309 5.52071 17.966C5.95302 18 6.48287 18 7.13525 18H8.78783C9.4402 18 9.97006 18 10.4024 17.966C10.8495 17.9309 11.2464 17.8565 11.6214 17.6783C12.2177 17.395 12.7165 16.9407 13.0554 16.3734C13.2683 16.0169 13.3811 15.6284 13.4603 15.1853C13.5368 14.7565 13.5895 14.2267 13.6544 13.5734L14.5029 5.04005H15.2308C15.6131 5.04005 15.9231 4.7301 15.9231 4.34775C15.9231 3.9654 15.6131 3.65544 15.2308 3.65544H11.2972V3.35083L11.2972 3.25756C11.2975 2.73088 11.2978 2.33519 11.2063 1.99194C10.9597 1.06635 10.2401 0.340972 9.31563 0.0918566C8.97287 -0.00051003 8.5779 -0.000275396 8.05505 3.52438e-05L7.96154 7.19693e-05ZM6.01049 3.65544H9.91259V3.35083C9.91259 2.68842 9.9067 2.49228 9.86837 2.3484C9.74834 1.89787 9.39922 1.54839 8.95535 1.42877C8.81403 1.39069 8.6209 1.38468 7.96154 1.38468C7.30217 1.38468 7.10904 1.39069 6.96772 1.42877C6.52385 1.54839 6.17474 1.89787 6.05471 2.3484C6.01637 2.49228 6.01049 2.68842 6.01049 3.35083V3.65544ZM5.5801 6.6496C5.96058 6.61176 6.29968 6.88953 6.33751 7.27L6.99835 13.9161C7.03618 14.2966 6.75841 14.6357 6.37794 14.6735C5.99746 14.7114 5.65836 14.4336 5.62053 14.0531L4.95969 7.407C4.92186 7.02653 5.19963 6.68743 5.5801 6.6496ZM10.343 6.6496C10.7234 6.68743 11.0012 7.02653 10.9634 7.407L10.3025 14.0531C10.2647 14.4336 9.92561 14.7114 9.54514 14.6735C9.16466 14.6357 8.88689 14.2966 8.92472 13.9161L9.58556 7.27C9.6234 6.88953 9.9625 6.61176 10.343 6.6496Z" fill="#02897A"/>
</svg>
