<svg width="18" height="18" viewBox="0 0 18 18" fill="none" xmlns="http://www.w3.org/2000/svg">
<path d="M17.718 16.3539L13.801 12.4369C14.8168 11.1306 15.4288 9.49448 15.4288 7.71439C15.4288 3.46055 11.9682 0 7.71439 0C3.46055 0 0 3.46055 0 7.71439C0 11.9682 3.46055 15.4288 7.71439 15.4288C9.49448 15.4288 11.1306 14.8168 12.4369 13.801L16.3539 17.718C16.7306 18.0947 17.3407 18.0947 17.7174 17.718C18.0941 17.3413 18.0941 16.7306 17.718 16.3539ZM1.28573 7.71439C1.28573 4.16963 4.16963 1.28573 7.71439 1.28573C11.2592 1.28573 14.143 4.16963 14.143 7.71439C14.143 11.2592 11.2592 14.143 7.71439 14.143C4.16963 14.143 1.28573 11.2592 1.28573 7.71439Z" fill="white"/>
<path d="M10.9287 10.9287H4.50006V9.9464C4.50006 8.68253 5.321 7.62051 6.45502 7.23544C6.04808 6.88186 5.78579 6.36693 5.78579 5.78577C5.78579 4.72055 6.64916 3.85718 7.71439 3.85718C8.77962 3.85718 9.64299 4.72055 9.64299 5.78577C9.64299 6.36693 9.3807 6.88186 8.97376 7.23544C10.1078 7.62051 10.9287 8.68253 10.9287 9.9464V10.9287Z" fill="white"/>
</svg>
