<svg width="24" height="24" viewBox="0 0 24 24" fill="none" xmlns="http://www.w3.org/2000/svg">
<path d="M12 0C9.62663 0 7.30655 0.703788 5.33316 2.02236C3.35977 3.34094 1.8217 5.21508 0.913451 7.4078C0.00519941 9.60051 -0.232441 12.0133 0.230582 14.3411C0.693605 16.6689 1.83649 18.807 3.51472 20.4853C5.19295 22.1635 7.33115 23.3064 9.65892 23.7694C11.9867 24.2324 14.3995 23.9948 16.5922 23.0865C18.7849 22.1783 20.6591 20.6402 21.9776 18.6668C23.2962 16.6934 24 14.3734 24 12C23.9963 8.81853 22.7309 5.76841 20.4812 3.51877C18.2316 1.26912 15.1815 0.00366459 12 0ZM12 22.1538C9.99176 22.1538 8.02862 21.5583 6.35883 20.4426C4.68904 19.3269 3.38759 17.7411 2.61907 15.8857C1.85055 14.0303 1.64947 11.9887 2.04126 10.0191C2.43305 8.04943 3.40011 6.24019 4.82015 4.82015C6.24019 3.40011 8.04943 2.43305 10.0191 2.04126C11.9887 1.64947 14.0303 1.85055 15.8857 2.61907C17.7411 3.38759 19.3269 4.68903 20.4426 6.35882C21.5583 8.02861 22.1538 9.99176 22.1538 12C22.1507 14.692 21.0799 17.2728 19.1763 19.1763C17.2728 21.0799 14.692 22.1507 12 22.1538ZM20.0502 12.5852L18.204 14.4314C18.0309 14.6044 17.7962 14.7016 17.5514 14.7016C17.3066 14.7016 17.0719 14.6044 16.8988 14.4314L15.0526 12.5852C14.9645 12.5001 14.8941 12.3982 14.8458 12.2856C14.7974 12.173 14.7719 12.0519 14.7708 11.9293C14.7698 11.8067 14.7931 11.6852 14.8396 11.5717C14.886 11.4583 14.9545 11.3552 15.0412 11.2686C15.1278 11.1819 15.2309 11.1133 15.3444 11.0669C15.4578 11.0205 15.5793 10.9972 15.7019 10.9982C15.8245 10.9993 15.9456 11.0248 16.0582 11.0731C16.1708 11.1215 16.2727 11.1918 16.3578 11.28L16.5655 11.4877C16.4494 10.5016 16.0166 9.57971 15.3322 8.86039C14.6477 8.14106 13.7485 7.66306 12.7693 7.49808C11.7902 7.33309 10.784 7.49004 9.9016 7.94535C9.01922 8.40067 8.30826 9.12982 7.87537 10.0234C7.44248 10.917 7.311 11.9269 7.50066 12.9015C7.69031 13.8762 8.19088 14.7631 8.92726 15.4291C9.66364 16.0952 10.5961 16.5046 11.5849 16.5958C12.5736 16.687 13.5653 16.4552 14.4111 15.9351C14.6184 15.8236 14.8606 15.7956 15.0879 15.8567C15.3153 15.9179 15.5107 16.0636 15.6341 16.264C15.7576 16.4645 15.7998 16.7046 15.7521 16.9351C15.7044 17.1657 15.5704 17.3693 15.3775 17.5043C14.1745 18.2437 12.7625 18.5686 11.3573 18.4294C9.95211 18.2902 8.63122 17.6945 7.59665 16.7335C6.56208 15.7725 5.87079 14.4991 5.62852 13.108C5.38625 11.7169 5.60633 10.2847 6.25511 9.03051C6.90389 7.77633 7.94565 6.7692 9.22103 6.16317C10.4964 5.55714 11.9352 5.38557 13.3173 5.67471C14.6995 5.96384 15.9488 6.69776 16.8743 7.76422C17.7998 8.83067 18.3505 10.1709 18.4422 11.58L18.7468 11.2763C18.8319 11.1881 18.9338 11.1178 19.0464 11.0694C19.159 11.0211 19.2801 10.9956 19.4027 10.9945C19.5253 10.9935 19.6468 11.0168 19.7603 11.0632C19.8737 11.1097 19.9768 11.1782 20.0634 11.2649C20.1501 11.3515 20.2187 11.4546 20.2651 11.568C20.3115 11.6815 20.3348 11.803 20.3338 11.9256C20.3327 12.0482 20.3072 12.1693 20.2589 12.2819C20.2105 12.3945 20.1402 12.4964 20.052 12.5815L20.0502 12.5852Z" fill="white"/>
</svg>
