<svg width="16" height="19" viewBox="0 0 16 19" fill="none" xmlns="http://www.w3.org/2000/svg">
<path fill-rule="evenodd" clip-rule="evenodd" d="M5.49961 1.99991C3.56902 1.99991 1.99991 3.57307 1.99991 5.51866V16.3577C1.99991 16.9149 2.65175 17.1987 3.05596 16.8332L6.71587 13.5236C7.54006 12.7783 8.79204 12.7783 9.61623 13.5236L13.2761 16.8332C13.6803 17.1987 14.3322 16.9149 14.3322 16.3577V5.51866C14.3322 3.57307 12.7631 1.99991 10.8325 1.99991H5.49961ZM1 5.51866C1 3.02532 3.01231 1 5.49961 1H10.8325C13.3198 1 15.3321 3.02532 15.3321 5.51866V16.3577C15.3321 17.7721 13.6598 18.5283 12.6055 17.5749L8.94556 14.2653C8.50218 13.8643 7.82992 13.8643 7.38653 14.2653L3.72662 17.5749C2.6723 18.5283 1 17.7721 1 16.3577V5.51866ZM4.33305 4.84888C4.33305 4.57276 4.55688 4.34892 4.833 4.34892H11.4991C11.7752 4.34892 11.9991 4.57276 11.9991 4.84888C11.9991 5.125 11.7752 5.34884 11.4991 5.34884H4.833C4.55688 5.34884 4.33305 5.125 4.33305 4.84888Z" fill="#22343D" stroke="#22343D" stroke-width="0.5" stroke-linecap="round"/>
</svg>
