<svg width="14" height="14" viewBox="0 0 14 14" fill="none" xmlns="http://www.w3.org/2000/svg">
<path d="M13.4568 12.4451L10.5097 9.49807C11.2192 8.55353 11.6023 7.40382 11.601 6.22248C11.601 3.20497 9.14599 0.75 6.12849 0.75C3.11098 0.75 0.656006 3.20497 0.656006 6.22248C0.656006 9.23999 3.11098 11.695 6.12849 11.695C7.30983 11.6963 8.45954 11.3132 9.40408 10.6037L12.3511 13.5508C12.5003 13.6841 12.6949 13.7553 12.8949 13.7497C13.0949 13.7441 13.2852 13.6621 13.4267 13.5207C13.5681 13.3792 13.6501 13.1889 13.6557 12.9889C13.6613 12.7889 13.5901 12.5943 13.4568 12.4451ZM2.21957 6.22248C2.21957 5.44937 2.44883 4.69362 2.87834 4.0508C3.30786 3.40799 3.91835 2.90697 4.63261 2.61111C5.34687 2.31526 6.13282 2.23785 6.89108 2.38867C7.64933 2.5395 8.34583 2.91179 8.89251 3.45846C9.43918 4.00513 9.81147 4.70163 9.96229 5.45989C10.1131 6.21814 10.0357 7.0041 9.73985 7.71836C9.444 8.43262 8.94298 9.04311 8.30016 9.47262C7.65734 9.90214 6.9016 10.1314 6.12849 10.1314C5.09216 10.1302 4.09863 9.71792 3.36584 8.98513C2.63305 8.25233 2.22081 7.25881 2.21957 6.22248Z" fill="#979797"/>
</svg>
