<svg width="95" height="19" viewBox="0 0 95 19" fill="none" xmlns="http://www.w3.org/2000/svg">
<path d="M37.1797 4.85938H33.5234V15H32.0312V4.85938H28.3828V3.625H37.1797V4.85938ZM40.2109 15H38.7578V6.54688H40.2109V15ZM40.3516 5.30469H39.1094L37.0938 3.00781H38.8359L40.3516 5.30469ZM43.9531 6.54688L43.9922 7.48438C44.612 6.75521 45.4479 6.39062 46.5 6.39062C47.6823 6.39062 48.487 6.84375 48.9141 7.75C49.1953 7.34375 49.5599 7.01562 50.0078 6.76562C50.4609 6.51562 50.9948 6.39062 51.6094 6.39062C53.4635 6.39062 54.4062 7.3724 54.4375 9.33594V15H52.9922V9.42188C52.9922 8.81771 52.8542 8.36719 52.5781 8.07031C52.3021 7.76823 51.8385 7.61719 51.1875 7.61719C50.651 7.61719 50.2057 7.77865 49.8516 8.10156C49.4974 8.41927 49.2917 8.84896 49.2344 9.39062V15H47.7812V9.46094C47.7812 8.23177 47.1797 7.61719 45.9766 7.61719C45.0286 7.61719 44.3802 8.02083 44.0312 8.82812V15H42.5859V6.54688H43.9531ZM62.9531 11.0859L62.0469 12.0312V15H60.6016V3H62.0469V10.2578L62.8203 9.32812L65.4531 6.54688H67.2109L63.9219 10.0781L67.5938 15H65.8984L62.9531 11.0859ZM70.2734 15H68.8281V6.54688H70.2734V15ZM68.7109 4.30469C68.7109 4.07031 68.7812 3.8724 68.9219 3.71094C69.0677 3.54948 69.2812 3.46875 69.5625 3.46875C69.8438 3.46875 70.0573 3.54948 70.2031 3.71094C70.349 3.8724 70.4219 4.07031 70.4219 4.30469C70.4219 4.53906 70.349 4.73438 70.2031 4.89062C70.0573 5.04688 69.8438 5.125 69.5625 5.125C69.2812 5.125 69.0677 5.04688 68.9219 4.89062C68.7812 4.73438 68.7109 4.53906 68.7109 4.30469ZM76.1016 15.1562C74.9557 15.1562 74.0234 14.7812 73.3047 14.0312C72.5859 13.276 72.2266 12.2682 72.2266 11.0078V10.7422C72.2266 9.90365 72.3854 9.15625 72.7031 8.5C73.026 7.83854 73.474 7.32292 74.0469 6.95312C74.625 6.57812 75.25 6.39062 75.9219 6.39062C77.0208 6.39062 77.875 6.7526 78.4844 7.47656C79.0938 8.20052 79.3984 9.23698 79.3984 10.5859V11.1875H73.6719C73.6927 12.0208 73.9349 12.6953 74.3984 13.2109C74.8672 13.7214 75.4609 13.9766 76.1797 13.9766C76.6901 13.9766 77.1224 13.8724 77.4766 13.6641C77.8307 13.4557 78.1406 13.1797 78.4062 12.8359L79.2891 13.5234C78.5807 14.612 77.5182 15.1562 76.1016 15.1562ZM75.9219 7.57812C75.3385 7.57812 74.849 7.79167 74.4531 8.21875C74.0573 8.64062 73.8125 9.23438 73.7188 10H77.9531V9.89062C77.9115 9.15625 77.7135 8.58854 77.3594 8.1875C77.0052 7.78125 76.526 7.57812 75.9219 7.57812ZM75.3281 3.24219H76.5156L78.7812 5.29688H77.2422L75.9219 4.05469L74.5938 5.29688H73.0469L75.3281 3.24219ZM79.3125 1.89062H80.875L79.3047 3.91406H78.2031L79.3125 1.89062ZM82.4375 6.54688L82.4766 7.48438C83.0964 6.75521 83.9323 6.39062 84.9844 6.39062C86.1667 6.39062 86.9714 6.84375 87.3984 7.75C87.6797 7.34375 88.0443 7.01562 88.4922 6.76562C88.9453 6.51562 89.4792 6.39062 90.0938 6.39062C91.9479 6.39062 92.8906 7.3724 92.9219 9.33594V15H91.4766V9.42188C91.4766 8.81771 91.3385 8.36719 91.0625 8.07031C90.7865 7.76823 90.3229 7.61719 89.6719 7.61719C89.1354 7.61719 88.6901 7.77865 88.3359 8.10156C87.9818 8.41927 87.776 8.84896 87.7188 9.39062V15H86.2656V9.46094C86.2656 8.23177 85.6641 7.61719 84.4609 7.61719C83.513 7.61719 82.8646 8.02083 82.5156 8.82812V15H81.0703V6.54688H82.4375Z" fill="white"/>
<path d="M8.24993 17.4999C3.70122 17.4999 0 13.7986 0 9.24993C0 4.70122 3.70122 1 8.24993 1C12.7986 1 16.4999 4.70122 16.4999 9.24993C16.4999 13.7986 12.7986 17.4999 8.24993 17.4999ZM8.24993 2.49999C4.52846 2.49999 1.49999 5.52771 1.49999 9.24993C1.49999 12.9722 4.52846 15.9999 8.24993 15.9999C11.9714 15.9999 14.9999 12.9722 14.9999 9.24993C14.9999 5.52771 11.9714 2.49999 8.24993 2.49999Z" fill="white"/>
<path d="M17.2498 19C17.0578 19 16.8658 18.9265 16.7196 18.7802L13.1234 15.184C12.8309 14.8907 12.8309 14.416 13.1234 14.1235C13.4166 13.8303 13.8914 13.8303 14.1846 14.1235L17.7801 17.7197C18.0733 18.013 18.0733 18.487 17.7801 18.7802C17.6338 18.9265 17.4418 19 17.2498 19Z" fill="white"/>
</svg>
