<svg width="14" height="14" viewBox="0 0 14 14" fill="none" xmlns="http://www.w3.org/2000/svg">
<path d="M6.57334 4.40217C6.10899 4.40217 5.65506 4.53987 5.26896 4.79785C4.88286 5.05584 4.58194 5.42252 4.40423 5.85153C4.22653 6.28054 4.18004 6.7526 4.27063 7.20804C4.36122 7.66347 4.58483 8.08181 4.91318 8.41016C5.24153 8.73851 5.65987 8.96212 6.11531 9.05271C6.57074 9.1433 7.04281 9.09681 7.47182 8.91911C7.90083 8.74141 8.26751 8.44048 8.52549 8.05438C8.78347 7.66828 8.92117 7.21436 8.92117 6.75C8.91931 6.12789 8.67136 5.53179 8.23145 5.09189C7.79155 4.65199 7.19545 4.40403 6.57334 4.40217ZM11.6423 6.75C11.6411 6.96938 11.625 7.18842 11.5942 7.40563L13.0231 8.52437C13.0854 8.57576 13.1273 8.6476 13.1414 8.72706C13.1556 8.80653 13.141 8.88843 13.1003 8.95813L11.7485 11.2919C11.7074 11.361 11.6433 11.4133 11.5674 11.4398C11.4915 11.4663 11.4087 11.4651 11.3336 11.4366L9.6534 10.7616C9.30354 11.031 8.92067 11.2545 8.51412 11.4269L8.2629 13.2106C8.24884 13.2905 8.20747 13.3631 8.14585 13.4158C8.08424 13.4686 8.00622 13.4984 7.9251 13.5H5.22158C5.14195 13.4985 5.06519 13.47 5.00384 13.4192C4.94249 13.3684 4.90017 13.2983 4.88379 13.2203L4.63257 11.4366C4.22489 11.2662 3.84175 11.0423 3.49329 10.7707L1.81313 11.4457C1.73802 11.4742 1.65524 11.4754 1.57934 11.449C1.50344 11.4226 1.43929 11.3703 1.39815 11.3013L0.0463868 8.96782C0.00569836 8.89811 -0.00887848 8.81621 0.0052612 8.73675C0.0194009 8.65729 0.0613357 8.58544 0.123572 8.53405L1.55252 7.41532C1.52204 7.19482 1.50596 6.97258 1.50439 6.75C1.50561 6.53062 1.52169 6.31158 1.55252 6.09437L0.123572 4.97563C0.0613357 4.92424 0.0194009 4.8524 0.0052612 4.77293C-0.00887848 4.69347 0.00569836 4.61157 0.0463868 4.54187L1.39815 2.20813C1.43924 2.13904 1.50338 2.08666 1.57928 2.0602C1.65518 2.03373 1.73799 2.03488 1.81313 2.06345L3.49329 2.73845C3.84315 2.46904 4.22601 2.24545 4.63257 2.07313L4.88379 0.28937C4.89785 0.20947 4.93922 0.136933 5.00083 0.0841532C5.06244 0.0313739 5.14047 0.00162843 5.22158 0H7.9251C8.00474 0.00155001 8.0815 0.0300496 8.14285 0.0808463C8.2042 0.131643 8.24652 0.201737 8.2629 0.279685L8.51412 2.06345C8.92231 2.23365 9.30595 2.4576 9.65487 2.72935L11.3336 2.05435C11.4087 2.02576 11.4914 2.02457 11.5673 2.05097C11.6432 2.07738 11.7074 2.1297 11.7485 2.19874L13.1003 4.53248C13.141 4.60218 13.1556 4.68408 13.1414 4.76354C13.1273 4.84301 13.0854 4.91485 13.0231 4.96624L11.5942 6.08498C11.6246 6.30537 11.6407 6.52752 11.6423 6.75Z" fill="#475E69"/>
</svg>
