<svg width="37" height="37" viewBox="0 0 37 37" fill="none" xmlns="http://www.w3.org/2000/svg">
<circle cx="18.5" cy="18.5" r="18.5" fill="#F2F2F2"/>
<path fill-rule="evenodd" clip-rule="evenodd" d="M27.6388 19.1051C27.6388 18.8599 27.6388 18.6151 27.615 18.3816C27.2419 13.5272 23.1337 9.69994 18.1055 9.69994C17.5565 9.69994 17.0084 9.73569 16.4715 9.82835C15.6203 9.30337 14.6163 9 13.5311 9C10.474 9 8 11.4384 8 14.4607C8 15.4532 8.26849 16.4099 8.75884 17.2149C8.68902 17.5532 8.63088 17.9031 8.59557 18.2418C8.58398 18.5332 8.5607 18.8129 8.5607 19.1051C8.5607 24.2978 12.8317 28.5104 18.1056 28.5104C18.7011 28.5104 19.2838 28.4514 19.8553 28.3467C20.6257 28.7673 21.513 29 22.4693 29C25.5265 29 28 26.5496 28 23.5397C28 22.6753 27.7786 21.8466 27.4166 21.1242C27.5681 20.4585 27.6388 19.7936 27.6388 19.1051ZM22.9941 23.5981C22.5623 24.2049 21.9091 24.6945 21.0691 25.0568C20.2176 25.3952 19.2255 25.5581 18.0701 25.5581C16.7054 25.5581 15.55 25.3246 14.6631 24.8582C14.0209 24.5075 13.4961 24.0635 13.0876 23.4808C12.691 22.9098 12.4925 22.3371 12.4925 21.7768C12.4925 21.427 12.6093 21.1476 12.8897 20.8908C13.1345 20.6572 13.4844 20.5284 13.8814 20.5284C14.196 20.5284 14.4878 20.6223 14.7217 20.8201C14.9428 20.9955 15.1182 21.264 15.2811 21.6256C15.4453 22.0113 15.6202 22.3371 15.8185 22.5823C16.0051 22.8159 16.2736 23.0378 16.6115 23.2008C16.9731 23.3645 17.4285 23.4343 18.0004 23.4343C18.7933 23.4343 19.4467 23.2714 19.9254 22.9439C20.3925 22.6172 20.6257 22.244 20.6257 21.7768C20.6257 21.392 20.5206 21.1119 20.2762 20.8675C19.9958 20.6339 19.6574 20.4586 19.2485 20.3189C18.8167 20.19 18.222 20.0388 17.4985 19.8983C16.5068 19.6888 15.6548 19.4321 14.9903 19.1637C14.3133 18.8724 13.7648 18.4755 13.3563 17.973C13.2279 17.8101 13.1227 17.6351 13.03 17.448C12.8317 17.0511 12.7383 16.6081 12.7383 16.0827C12.7383 15.382 12.9594 14.7291 13.3912 14.1929C13.823 13.6323 14.4301 13.2125 15.2464 12.9321C16.0398 12.617 16.9732 12.4769 18.0354 12.4769C18.8994 12.4769 19.6459 12.5821 20.2763 12.7686C20.906 12.9673 21.4192 13.2354 21.8394 13.5384C22.2707 13.8655 22.5741 14.2046 22.7728 14.5662C22.9715 14.9507 23.065 15.3009 23.065 15.6509C23.065 15.9893 22.9365 16.2931 22.6792 16.5498C22.4107 16.8175 22.0845 16.9576 21.6993 16.9576C21.3494 16.9576 21.0692 16.877 20.8827 16.7133C20.7077 16.5499 20.5086 16.3164 20.3112 15.9543C20.0772 15.523 19.7862 15.1614 19.4468 14.9041C19.1322 14.671 18.5956 14.5546 17.8604 14.5546C17.1722 14.5546 16.6116 14.6943 16.203 14.9631C15.8065 15.2195 15.6083 15.4996 15.6083 15.8613C15.6083 16.0595 15.6785 16.2462 15.8065 16.4099C15.947 16.5612 16.1336 16.7133 16.3784 16.8417C16.6347 16.9576 16.8804 17.0512 17.1368 17.1214C17.1954 17.1447 17.2419 17.1447 17.3001 17.1572C17.5686 17.2382 17.9655 17.32 18.4676 17.4481C19.2256 17.6118 19.9491 17.7868 20.5788 17.9851C21.2092 18.1833 21.7453 18.4406 22.2008 18.7319C22.6679 19.012 23.0291 19.3968 23.2744 19.8401C23.5316 20.2957 23.6592 20.8558 23.6592 21.5092C23.6591 22.2798 23.4375 22.9788 22.9941 23.5981Z" fill="#22343D"/>
</svg>
