<svg width="25" height="25" viewBox="0 0 25 25" fill="none" xmlns="http://www.w3.org/2000/svg">
<path d="M13.8885 11.6095L12.1696 11.228C11.5158 11.079 10.7631 10.8822 10.7631 10.2657C10.7631 9.64793 11.2911 9.2163 12.2442 9.2163C14.1651 9.2163 13.9896 10.5364 14.9433 10.5364C15.4451 10.5364 15.8844 10.2413 15.8844 9.73396C15.8844 8.55006 13.9896 7.66162 12.3823 7.66162C10.6375 7.66162 8.77931 8.40263 8.77931 10.3762C8.77931 11.3266 9.11882 12.3377 10.9892 12.8067L13.3116 13.3865C14.0144 13.5597 14.1903 13.9551 14.1903 14.3118C14.1903 14.905 13.6011 15.4844 12.5337 15.4844C10.4488 15.4844 10.7382 13.88 9.62083 13.88C9.11882 13.88 8.75452 14.2258 8.75452 14.7192C8.75452 15.6813 9.92258 16.9651 12.5337 16.9651C15.0181 16.9651 16.2491 15.7677 16.2491 14.164C16.2491 13.1285 15.7717 12.0291 13.8885 11.6095Z" fill="#475E69"/>
<path d="M12.5 0C5.5975 0 0 5.5975 0 12.5C0 19.4025 5.5975 25 12.5 25C19.4025 25 25 19.4025 25 12.5C25 5.5975 19.4025 0 12.5 0ZM19.0081 18.9896C18.1862 19.8118 17.094 20.2637 15.9321 20.2637C15.1794 20.2637 14.4424 20.068 13.7915 19.6997C13.369 19.7746 12.9362 19.8141 12.5044 19.8141C11.5122 19.8141 10.5494 19.6196 9.64355 19.2356C8.7677 18.8663 7.98206 18.3359 7.30667 17.6609C6.63204 16.9861 6.10218 16.2004 5.73235 15.325C5.34859 14.4186 5.15442 13.4563 5.15442 12.464C5.15442 12.039 5.19257 11.6135 5.26505 11.1971C4.9078 10.5545 4.71764 9.82742 4.71764 9.08756C4.71764 7.92542 5.17044 6.8327 5.99194 6.01101C6.81381 5.18894 7.90653 4.73633 9.06868 4.73633C9.7805 4.73633 10.4839 4.9139 11.1092 5.24635C11.1103 5.24616 11.1116 5.24616 11.1126 5.24578C11.5685 5.15842 12.0367 5.11436 12.5044 5.11436C13.4964 5.11436 14.459 5.30872 15.3648 5.69191C16.2397 6.06213 17.0263 6.59199 17.7008 7.26681C18.3762 7.94182 18.9058 8.72784 19.276 9.60312C19.6598 10.5093 19.854 11.4717 19.854 12.464C19.854 12.9112 19.8118 13.3589 19.7315 13.7962C20.0912 14.4413 20.2826 15.1709 20.2826 15.9132C20.2824 17.0753 19.8301 18.1683 19.0081 18.9896Z" fill="#475E69"/>
</svg>
