<svg width="25" height="26" viewBox="0 0 25 26" fill="none" xmlns="http://www.w3.org/2000/svg">
<path d="M13.8885 11.6969L12.1696 11.3154C11.5158 11.1664 10.7631 10.9696 10.7631 10.3531C10.7631 9.73534 11.2911 9.3037 12.2442 9.3037C14.1651 9.3037 13.9896 10.6238 14.9433 10.6238C15.4451 10.6238 15.8844 10.3287 15.8844 9.82136C15.8844 8.63747 13.9896 7.74902 12.3823 7.74902C10.6375 7.74902 8.77931 8.49003 8.77931 10.4636C8.77931 11.414 9.11882 12.4251 10.9892 12.8941L13.3116 13.4739C14.0144 13.6471 14.1903 14.0425 14.1903 14.3992C14.1903 14.9924 13.6011 15.5718 12.5337 15.5718C10.4488 15.5718 10.7382 13.9674 9.62083 13.9674C9.11882 13.9674 8.75452 14.3132 8.75452 14.8066C8.75452 15.7687 9.92258 17.0525 12.5337 17.0525C15.0181 17.0525 16.2491 15.8551 16.2491 14.2514C16.2491 13.2159 15.7717 12.1165 13.8885 11.6969Z" fill="white"/>
<path d="M12.5 0.0874023C5.5975 0.0874023 0 5.6849 0 12.5874C0 19.4899 5.5975 25.0874 12.5 25.0874C19.4025 25.0874 25 19.4899 25 12.5874C25 5.6849 19.4025 0.0874023 12.5 0.0874023ZM19.0081 19.077C18.1862 19.8992 17.094 20.3511 15.9321 20.3511C15.1794 20.3511 14.4424 20.1554 13.7915 19.7871C13.369 19.862 12.9362 19.9015 12.5044 19.9015C11.5122 19.9015 10.5494 19.707 9.64355 19.323C8.7677 18.9538 7.98206 18.4233 7.30667 17.7483C6.63204 17.0735 6.10218 16.2878 5.73235 15.4124C5.34859 14.506 5.15442 13.5437 5.15442 12.5514C5.15442 12.1264 5.19257 11.7009 5.26505 11.2845C4.9078 10.6419 4.71764 9.91483 4.71764 9.17496C4.71764 8.01282 5.17044 6.9201 5.99194 6.09841C6.81381 5.27634 7.90653 4.82373 9.06868 4.82373C9.7805 4.82373 10.4839 5.0013 11.1092 5.33376C11.1103 5.33356 11.1116 5.33356 11.1126 5.33318C11.5685 5.24583 12.0367 5.20177 12.5044 5.20177C13.4964 5.20177 14.459 5.39613 15.3648 5.77931C16.2397 6.14953 17.0263 6.67939 17.7008 7.35421C18.3762 8.02922 18.9058 8.81524 19.276 9.69052C19.6598 10.5967 19.854 11.5592 19.854 12.5514C19.854 12.9986 19.8118 13.4463 19.7315 13.8836C20.0912 14.5287 20.2826 15.2583 20.2826 16.0006C20.2824 17.1628 19.8301 18.2557 19.0081 19.077Z" fill="white"/>
</svg>
