<svg width="24" height="24" viewBox="0 0 24 24" fill="none" xmlns="http://www.w3.org/2000/svg">
<path d="M3.87502 1.14492C3.87502 1.14488 3.87502 20.4211 3.87502 20.4211L1.89115 18.8326C0.686812 17.8997 -0.736969 19.6723 0.440665 20.6478C0.516598 20.6751 4.72543 24.1742 4.6976 23.9445C5.06122 24.0729 5.45994 23.9668 5.76136 23.747C5.76136 23.747 9.63153 20.6478 9.63153 20.6478C10.1323 20.2468 10.2136 19.5155 9.81298 19.0142C9.4127 18.5133 8.68136 18.4323 8.181 18.8326L6.19713 20.4212V1.14488C6.17516 -0.370189 3.90176 -0.393035 3.87502 1.14492ZM22.8389 3.08185H10.5511C9.90971 3.08185 9.39002 3.60206 9.39002 4.24406C9.39002 4.8861 9.90971 5.40626 10.5511 5.40626H22.8389C23.4803 5.40626 24 4.8861 24 4.24406C24 3.60206 23.4803 3.08185 22.8389 3.08185ZM22.8389 8.2471H12.5992C11.9578 8.2471 11.4382 8.7673 11.4382 9.4093C11.4382 10.0513 11.9578 10.5715 12.5992 10.5715H22.8389C23.4803 10.5715 24 10.0513 24 9.4093C24 8.7673 23.4803 8.2471 22.8389 8.2471ZM22.8389 13.4127H14.6469C14.0056 13.4127 13.4859 13.9329 13.4859 14.5749C13.4859 15.217 14.0056 15.7371 14.6469 15.7371H22.8389C23.4803 15.7371 24 15.217 24 14.5749C24 13.9329 23.4803 13.4127 22.8389 13.4127ZM22.8389 18.578H16.695C16.0536 18.578 15.534 19.0982 15.534 19.7402C15.534 20.3822 16.0536 20.9024 16.695 20.9024H22.8389C23.4803 20.9024 24 20.3822 24 19.7402C24 19.0982 23.4803 18.578 22.8389 18.578Z" fill="#22343D"/>
</svg>
