<svg width="21" height="18" viewBox="0 0 21 18" fill="none" xmlns="http://www.w3.org/2000/svg">
<path d="M13.0106 4.96452C13.2202 5.23732 13.4757 5.47167 13.7654 5.65714C14.1512 5.90599 14.5576 6.03456 14.9765 6.03456C16.5277 6.03456 17.7346 4.27604 17.7346 2.76636C17.7346 1.24009 16.4986 0 14.9765 0C13.4502 0 12.2101 1.24009 12.2101 2.76636C12.2101 3.50046 12.5005 4.30922 12.9857 4.93548C12.9899 4.93963 13.0023 4.95207 13.0106 4.96452V4.96452ZM10.7108 10.1128C10.4848 10.3226 10.248 10.5072 9.99913 10.6586C9.37244 11.065 8.68313 11.2765 7.97101 11.2765C6.91756 11.2765 5.97484 10.8203 5.22042 10.1173C2.17825 11.2405 0 14.1603 0 17.5853C0 17.8175 0.186636 18 0.414747 18H15.5323C15.7645 18 15.947 17.8175 15.947 17.5853C15.947 17.5562 15.947 17.5272 15.9387 17.5023C15.903 14.1055 13.7323 11.223 10.7108 10.1128Z" fill="#B5BFC3"/>
<path d="M17.3706 5.73003C16.7456 6.40773 15.9165 6.86395 14.9763 6.86395C14.3994 6.86395 13.8403 6.69224 13.3157 6.35381C13.0423 6.17935 12.7931 5.96962 12.5745 5.73003C12.5579 5.73791 12.5417 5.74786 12.5247 5.75574C12.5297 5.83869 12.5376 5.92123 12.5376 6.00542C12.5376 7.15842 12.0868 8.43501 11.3294 9.43081C11.3212 9.44284 11.3137 9.44989 11.3058 9.46109C12.3815 9.90412 13.3583 10.5566 14.1796 11.3805H20.3224C20.5505 11.3805 20.7371 11.1939 20.7371 10.9658C20.7371 8.64445 19.3548 6.64247 17.3706 5.73003ZM7.97124 10.4474C8.52286 10.4474 9.06203 10.2773 9.56802 9.94966C9.94958 9.7174 10.3021 9.3939 10.6132 8.99989C10.6256 8.98745 10.6381 8.97501 10.6464 8.95842C11.31 8.09989 11.7081 6.99666 11.7081 6.00542C11.7081 3.94413 10.0325 2.26855 7.97124 2.26855C5.90995 2.26855 4.23438 3.94413 4.23438 6.00542C4.23438 8.05842 5.86848 10.4474 7.97124 10.4474V10.4474Z" fill="#B5BFC3"/>
</svg>
