<svg width="14" height="16" viewBox="0 0 14 16" fill="none" xmlns="http://www.w3.org/2000/svg">
<path d="M2.54684 15.0312H1.60934C1.42286 15.0312 1.24402 14.9572 1.11216 14.8253C0.980299 14.6934 0.906219 14.5146 0.906219 14.3281V10.1094C0.906219 9.92289 0.980299 9.74405 1.11216 9.61219C1.24402 9.48033 1.42286 9.40625 1.60934 9.40625H2.54684C2.73332 9.40625 2.91217 9.48033 3.04403 9.61219C3.17589 9.74405 3.24997 9.92289 3.24997 10.1094V14.3281C3.24997 14.5146 3.17589 14.6934 3.04403 14.8253C2.91217 14.9572 2.73332 15.0312 2.54684 15.0312Z" fill="#475E69"/>
<path d="M9.10937 15.0312H8.17187C7.98539 15.0312 7.80655 14.9572 7.67469 14.8253C7.54283 14.6934 7.46875 14.5146 7.46875 14.3281V7.29687C7.46875 7.11039 7.54283 6.93155 7.67469 6.79969C7.80655 6.66783 7.98539 6.59375 8.17187 6.59375H9.10937C9.29585 6.59375 9.4747 6.66783 9.60656 6.79969C9.73842 6.93155 9.8125 7.11039 9.8125 7.29687V14.3281C9.8125 14.5146 9.73842 14.6934 9.60656 14.8253C9.4747 14.9572 9.29585 15.0312 9.10937 15.0312Z" fill="#475E69"/>
<path d="M12.3906 15.0312H11.4531C11.2666 15.0312 11.0878 14.9572 10.9559 14.8253C10.824 14.6934 10.75 14.5146 10.75 14.3281V4.01562C10.75 3.82914 10.824 3.6503 10.9559 3.51844C11.0878 3.38658 11.2666 3.3125 11.4531 3.3125H12.3906C12.5771 3.3125 12.7559 3.38658 12.8878 3.51844C13.0196 3.6503 13.0937 3.82914 13.0937 4.01562V14.3281C13.0937 14.5146 13.0196 14.6934 12.8878 14.8253C12.7559 14.9572 12.5771 15.0312 12.3906 15.0312Z" fill="black"/>
<path d="M5.82812 15.0312H4.89062C4.70414 15.0312 4.5253 14.9572 4.39344 14.8253C4.26158 14.6934 4.1875 14.5146 4.1875 14.3281V1.67187C4.1875 1.48539 4.26158 1.30655 4.39344 1.17469C4.5253 1.04283 4.70414 0.96875 4.89062 0.96875H5.82812C6.01461 0.96875 6.19345 1.04283 6.32531 1.17469C6.45717 1.30655 6.53125 1.48539 6.53125 1.67187V14.3281C6.53125 14.5146 6.45717 14.6934 6.32531 14.8253C6.19345 14.9572 6.01461 15.0312 5.82812 15.0312Z" fill="black"/>
</svg>
