<svg width="18" height="18" viewBox="0 0 18 18" fill="none" xmlns="http://www.w3.org/2000/svg">
<path fill-rule="evenodd" clip-rule="evenodd" d="M8.98873 14.06C6.19558 14.06 3.92307 11.7875 3.92307 8.99435C3.92307 6.2012 6.19558 3.92868 8.98873 3.92868C11.7819 3.92868 14.0544 6.2012 14.0544 8.99435C14.0544 11.7875 11.7819 14.06 8.98873 14.06ZM8.98873 2.80298C5.56941 2.80298 2.79736 5.57502 2.79736 8.99435C2.79736 12.4137 5.56941 15.1857 8.98873 15.1857C12.4081 15.1857 15.1801 12.4137 15.1801 8.99435C15.1801 5.57502 12.4081 2.80298 8.98873 2.80298Z" fill="#FFFFFE"/>
<path fill-rule="evenodd" clip-rule="evenodd" d="M9.55148 8.76113V6.74303C9.55148 6.59375 9.49218 6.45059 9.38663 6.34503C9.28107 6.23948 9.13791 6.18018 8.98863 6.18018C8.83936 6.18018 8.69619 6.23948 8.59064 6.34503C8.48508 6.45059 8.42578 6.59375 8.42578 6.74303V9.22774L10.8421 11.6438C10.9521 11.7538 11.096 11.8087 11.24 11.8087C11.3513 11.8087 11.4601 11.7756 11.5527 11.7138C11.6452 11.6519 11.7173 11.5641 11.7599 11.4612C11.8025 11.3584 11.8137 11.2452 11.792 11.1361C11.7703 11.0269 11.7167 10.9266 11.638 10.8479L9.55148 8.76113Z" fill="#FFFFFE"/>
<mask id="mask0_155_3365" style="mask-type:alpha" maskUnits="userSpaceOnUse" x="0" y="0" width="18" height="18">
<path d="M0 18H17.9944V0H0V18Z" fill="white"/>
</mask>
<g mask="url(#mask0_155_3365)">
<path fill-rule="evenodd" clip-rule="evenodd" d="M11.092 11.092C11.0508 11.1334 11.0018 11.1661 10.9479 11.1885C10.894 11.2108 10.8362 11.2223 10.7778 11.2222C10.7194 11.2223 10.6616 11.2108 10.6077 11.1885C10.5537 11.1661 10.5048 11.1334 10.4636 11.092L8.55556 9.18422V7.22222C8.55556 7.10435 8.60238 6.9913 8.68573 6.90795C8.76908 6.8246 8.88213 6.77778 9 6.77778C9.11787 6.77778 9.23092 6.8246 9.31427 6.90795C9.39762 6.9913 9.44444 7.10435 9.44444 7.22222V8.81578L11.092 10.4636C11.1753 10.5469 11.2221 10.6599 11.2221 10.7778C11.2221 10.8956 11.1753 11.0087 11.092 11.092ZM9 5C6.79444 5 5 6.79444 5 9C5 11.2056 6.79444 13 9 13C11.2056 13 13 11.2056 13 9C13 6.79444 11.2056 5 9 5Z" fill="#B5BFC3"/>
<path fill-rule="evenodd" clip-rule="evenodd" d="M8.98854 15.1858C5.56921 15.1858 2.79717 12.4137 2.79717 8.9944C2.79717 5.57507 5.56921 2.80303 8.98854 2.80303C12.4079 2.80303 15.1799 5.57507 15.1799 8.9944C15.1799 12.4137 12.4079 15.1858 8.98854 15.1858ZM8.98854 -0.0112305C4.0149 -0.0112305 -0.0170898 4.02076 -0.0170898 8.9944C-0.0170898 13.968 4.0149 18 8.98854 18C13.9622 18 17.9942 13.968 17.9942 8.9944C17.9942 4.02076 13.9622 -0.0112305 8.98854 -0.0112305Z" fill="#B5BFC3"/>
</g>
</svg>
