<svg width="25" height="26" viewBox="0 0 25 26" fill="none" xmlns="http://www.w3.org/2000/svg">
<path d="M12.5 0.0874023C5.60753 0.0874023 0 5.69493 0 12.5874C0 19.4794 5.60753 25.0874 12.5 25.0874C19.392 25.0874 25 19.4794 25 12.5874C25 5.69493 19.393 0.0874023 12.5 0.0874023ZM18.0763 9.72649C18.0818 9.85035 18.0849 9.97522 18.0849 10.1001C18.0849 13.9021 15.1917 18.2846 9.89839 18.2846C8.27358 18.2846 6.76106 17.8097 5.4882 16.9931C5.71326 17.0198 5.94236 17.0333 6.17447 17.0333C7.52286 17.0333 8.76299 16.5731 9.74784 15.8018C8.48908 15.7786 7.42619 14.9468 7.06014 13.8034C7.23536 13.8366 7.41612 13.8552 7.6009 13.8552C7.86323 13.8552 8.118 13.821 8.35918 13.755C7.04302 13.4912 6.05162 12.3286 6.05162 10.9339C6.05162 10.9218 6.05162 10.9092 6.05212 10.8976C6.43982 11.1126 6.88341 11.2425 7.35469 11.2571C6.58332 10.7421 6.07528 9.86093 6.07528 8.86298C6.07528 8.33531 6.21677 7.84087 6.46449 7.41591C7.88286 9.15703 10.0036 10.302 12.3943 10.4228C12.3449 10.2119 12.3202 9.99284 12.3202 9.76677C12.3202 8.17821 13.6082 6.88975 15.1968 6.88975C16.0245 6.88975 16.7712 7.23918 17.2969 7.79807C17.953 7.66917 18.5672 7.43051 19.1246 7.09971C18.9081 7.77189 18.4534 8.33531 17.8578 8.69179C18.4403 8.6223 18.9962 8.46823 19.5103 8.23914C19.1266 8.81515 18.6387 9.32218 18.0763 9.72649Z" fill="white"/>
</svg>
