<svg width="25" height="25" viewBox="0 0 25 25" fill="none" xmlns="http://www.w3.org/2000/svg">
<path d="M12.5 0C5.60753 0 0 5.60753 0 12.5C0 19.392 5.60753 25 12.5 25C19.392 25 25 19.392 25 12.5C25 5.60753 19.393 0 12.5 0ZM18.0763 9.63909C18.0818 9.76295 18.0849 9.88782 18.0849 10.0127C18.0849 13.8146 15.1917 18.1971 9.89839 18.1971C8.27358 18.1971 6.76106 17.7223 5.4882 16.9057C5.71326 16.9323 5.94236 16.9459 6.17447 16.9459C7.52286 16.9459 8.76299 16.4857 9.74784 15.7144C8.48908 15.6912 7.42619 14.8594 7.06014 13.716C7.23536 13.7492 7.41612 13.7678 7.6009 13.7678C7.86323 13.7678 8.118 13.7336 8.35918 13.6676C7.04302 13.4038 6.05162 12.2412 6.05162 10.8465C6.05162 10.8344 6.05162 10.8218 6.05212 10.8102C6.43982 11.0252 6.88341 11.1551 7.35469 11.1697C6.58332 10.6547 6.07528 9.77352 6.07528 8.77558C6.07528 8.2479 6.21677 7.75346 6.46449 7.32851C7.88286 9.06962 10.0036 10.2146 12.3943 10.3354C12.3449 10.1245 12.3202 9.90544 12.3202 9.67937C12.3202 8.09081 13.6082 6.80234 15.1968 6.80234C16.0245 6.80234 16.7712 7.15178 17.2969 7.71067C17.953 7.58177 18.5672 7.34311 19.1246 7.0123C18.9081 7.68448 18.4534 8.2479 17.8578 8.60439C18.4403 8.5349 18.9962 8.38083 19.5103 8.15174C19.1266 8.72774 18.6387 9.23477 18.0763 9.63909Z" fill="#475E69"/>
</svg>
