<svg width="34" height="33" viewBox="0 0 34 33" fill="none" xmlns="http://www.w3.org/2000/svg">
<path d="M17.4404 33C26.5531 33 33.9404 25.6127 33.9404 16.5C33.9404 7.38729 26.5531 0 17.4404 0C8.32772 0 0.94043 7.38729 0.94043 16.5C0.94043 25.6127 8.32772 33 17.4404 33Z" fill="#55ACEE"/>
<path d="M27.5468 11.8578C26.8398 12.1713 26.0791 12.3834 25.2815 12.4781C26.0959 11.9901 26.7209 11.218 27.0159 10.2965C26.2539 10.7486 25.4094 11.0766 24.5114 11.2533C23.792 10.4871 22.767 10.0083 21.6319 10.0083C19.4542 10.0083 17.688 11.7745 17.688 13.9523C17.688 14.2614 17.723 14.5623 17.7906 14.8511C14.5129 14.6867 11.6066 13.1166 9.66123 10.7298C9.32181 11.3122 9.12709 11.9901 9.12709 12.7128C9.12709 14.0808 9.82388 15.2885 10.8816 15.9956C10.2354 15.9753 9.62682 15.7979 9.09533 15.5017C9.09503 15.5185 9.09503 15.5353 9.09503 15.5517C9.09503 17.4627 10.4551 19.0566 12.259 19.4186C11.9284 19.5092 11.5792 19.5572 11.2201 19.5572C10.9654 19.5572 10.7186 19.5327 10.478 19.4869C10.9798 21.0534 12.436 22.1937 14.1623 22.2258C12.8122 23.2838 11.1119 23.9141 9.26357 23.9141C8.94591 23.9141 8.63119 23.8955 8.32324 23.8588C10.0677 24.9782 12.1413 25.6309 14.3684 25.6309C21.6228 25.6309 25.59 19.6213 25.59 14.409C25.59 14.2382 25.5862 14.0679 25.5785 13.899C26.3497 13.3431 27.0183 12.6487 27.5468 11.8578Z" fill="#F1F2F2"/>
</svg>
