<svg width="16" height="16" viewBox="0 0 16 16" fill="none" xmlns="http://www.w3.org/2000/svg">
<path d="M16 8.00244C16 10.14 15.1662 12.1499 13.6534 13.6587C13.6315 13.6816 13.6079 13.7029 13.583 13.7225C12.0812 15.1901 10.0973 15.9985 7.99694 15.9995H7.9935C5.88879 15.9995 3.90202 15.1888 2.39803 13.7167L2.33952 13.658C1.59908 12.9222 1.01061 12.0427 0.608809 11.0713C0.207005 10.1 0 9.05638 0 8.00212C0 6.94787 0.207005 5.90428 0.608809 4.9329C1.01061 3.96152 1.59908 3.082 2.33952 2.34621C3.84883 0.833647 5.85813 0 7.99569 0C10.1333 0 12.1429 0.833647 13.6534 2.34685C15.164 3.86005 16 5.8652 16 8.00244Z" fill="#22343D"/>
<path d="M15.4055 8.00231C15.4055 9.98035 14.6336 11.8403 13.2326 13.238C13.2123 13.2593 13.1905 13.279 13.1675 13.2971C11.7767 14.6555 9.94079 15.4027 7.99627 15.405H7.99314C6.04486 15.405 4.20578 14.6546 2.81348 13.292L2.75935 13.2377C2.07392 12.5566 1.52917 11.7424 1.15721 10.8432C0.785255 9.94398 0.593628 8.97793 0.593628 8.00199C0.593628 7.02606 0.785255 6.06 1.15721 5.16078C1.52917 4.26156 2.07392 3.44738 2.75935 2.76625C4.15728 1.36567 6.01733 0.594238 7.99596 0.594238C9.97458 0.594238 11.8349 1.36567 13.2329 2.76657C14.6308 4.16747 15.4055 6.02363 15.4055 8.00231Z" fill="white"/>
<path d="M11.8191 5.87261C11.8191 6.77593 11.512 7.6513 10.95 8.34957C10.388 9.04784 9.60595 9.52581 8.73711 9.70203C7.86826 9.87826 6.96638 9.74183 6.18512 9.31601C5.40386 8.89018 4.79157 8.2013 4.45258 7.36674C4.11359 6.53218 4.06888 5.60359 4.32605 4.73918C4.58323 3.87477 5.12638 3.12803 5.86297 2.6262C6.59955 2.12438 7.48399 1.89851 8.36559 1.98708C9.24718 2.07566 10.0714 2.4732 10.6978 3.11197C11.0544 3.47367 11.3371 3.9039 11.5296 4.37776C11.7221 4.85162 11.8205 5.35971 11.8191 5.87261ZM13.5843 13.0341C12.0966 14.535 10.0883 15.377 7.99544 15.3771H7.99231C5.90149 15.3861 3.89144 14.5544 2.39809 13.0621C2.3567 13.0209 2.33175 12.9655 2.32805 12.9065C2.32436 12.8476 2.34217 12.7894 2.37807 12.7431C3.29322 11.5709 4.53766 10.7117 5.94485 10.2804C5.9334 10.3164 5.93051 10.3547 5.93644 10.392C5.94237 10.4293 5.95695 10.4647 5.97896 10.4952L7.75797 12.9655C7.77939 12.9953 7.80733 13.0197 7.83959 13.0367C7.87185 13.0536 7.90753 13.0627 7.94382 13.0631H7.94726C7.98297 13.0631 8.01822 13.0548 8.05031 13.0388C8.08241 13.0228 8.11051 12.9996 8.13248 12.9709L9.99972 10.5264C10.0233 10.4956 10.0391 10.4593 10.0458 10.4207C10.0524 10.3822 10.0497 10.3426 10.0379 10.3053C10.0341 10.2933 10.0293 10.2817 10.0235 10.2706C11.4335 10.6925 12.6828 11.5451 13.6028 12.7134C13.6393 12.7597 13.6576 12.8181 13.6542 12.8774C13.6508 12.9366 13.6259 12.9925 13.5843 13.0341Z" fill="#22343D"/>
</svg>
