<svg width="14" height="14" viewBox="0 0 14 14" fill="none" xmlns="http://www.w3.org/2000/svg">
<path d="M9.24525 1.39199C8.67513 0.776465 7.87884 0.4375 6.99994 0.4375C6.11634 0.4375 5.31742 0.774414 4.74994 1.38613C4.1763 2.00459 3.89681 2.84512 3.96244 3.75273C4.09251 5.54336 5.45511 7 6.99994 7C8.54476 7 9.90501 5.54365 10.0371 3.75332C10.1036 2.85391 9.8224 2.01514 9.24525 1.39199Z" fill="#475E69"/>
<path d="M12.1562 13.5615H1.8437C1.70872 13.5633 1.57505 13.5349 1.4524 13.4785C1.32976 13.4221 1.22123 13.3391 1.13472 13.2354C0.94429 13.0078 0.867532 12.697 0.924368 12.3826C1.17163 11.0109 1.94331 9.85869 3.1562 9.0498C4.23374 8.33174 5.59868 7.93652 6.99995 7.93652C8.40122 7.93652 9.76616 8.33203 10.8437 9.0498C12.0566 9.8584 12.8283 11.0106 13.0755 12.3823C13.1324 12.6967 13.0556 13.0075 12.8652 13.2352C12.7787 13.3388 12.6702 13.4219 12.5475 13.4784C12.4249 13.5348 12.2912 13.5632 12.1562 13.5615Z" fill="#475E69"/>
</svg>
