<svg width="16" height="10" viewBox="0 0 16 10" fill="none" xmlns="http://www.w3.org/2000/svg">
<path d="M8 0C5.83614 0 3.87248 0.597573 2.41745 1.6049C0.962428 2.61223 5.70898e-05 4.06819 5.70898e-05 5.71425C-0.00101325 5.78997 0.0129763 5.86514 0.0412127 5.93541C0.0694492 6.00568 0.11137 6.06963 0.164537 6.12356C0.217705 6.17748 0.28106 6.2203 0.350921 6.24953C0.420781 6.27875 0.495754 6.2938 0.571482 6.2938C0.647209 6.2938 0.722182 6.27875 0.792042 6.24953C0.861903 6.2203 0.925258 6.17748 0.978426 6.12356C1.03159 6.06963 1.07351 6.00568 1.10175 5.93541C1.12999 5.86514 1.14398 5.78997 1.14291 5.71425C1.14291 4.51118 1.83773 3.39643 3.06812 2.54463C4.2985 1.69282 6.04846 1.14285 8 1.14285C9.95154 1.14285 11.7026 1.69282 12.933 2.54463C14.1634 3.39643 14.8571 4.51118 14.8571 5.71425C14.856 5.78997 14.87 5.86514 14.8982 5.93541C14.9265 6.00568 14.9684 6.06963 15.0216 6.12356C15.0747 6.17748 15.1381 6.2203 15.208 6.24953C15.2778 6.27875 15.3528 6.2938 15.4285 6.2938C15.5042 6.2938 15.5792 6.27875 15.6491 6.24953C15.7189 6.2203 15.7823 6.17748 15.8355 6.12356C15.8886 6.06963 15.9305 6.00568 15.9588 5.93541C15.987 5.86514 16.001 5.78997 15.9999 5.71425C15.9999 4.06819 15.0387 2.61223 13.5837 1.6049C12.1286 0.597573 10.1639 0 8 0Z" fill="white"/>
<path d="M7.9997 3.42859C6.42852 3.42859 5.14258 4.71453 5.14258 6.28571C5.14258 7.85689 6.42852 9.14283 7.9997 9.14283C9.57088 9.14283 10.8568 7.85689 10.8568 6.28571C10.8568 4.71453 9.57088 3.42859 7.9997 3.42859ZM7.9997 4.57144C8.95324 4.57144 9.71397 5.33218 9.71397 6.28571C9.71397 7.23925 8.95324 7.99999 7.9997 7.99999C7.04616 7.99999 6.28543 7.23925 6.28543 6.28571C6.28543 5.33218 7.04616 4.57144 7.9997 4.57144Z" fill="white"/>
</svg>
