<svg width="18" height="18" viewBox="0 0 18 18" fill="none" xmlns="http://www.w3.org/2000/svg">
<path d="M5.52757 4.734H1.06919C0.418722 5.93662 0.0530681 7.27227 0.000360162 8.6382H5.17261C5.19676 7.23852 5.32108 5.92128 5.52757 4.734ZM5.17009 9.3582H0C0.0525203 10.7241 0.418054 12.0598 1.06847 13.2624H5.48216C5.29045 12.069 5.1809 10.7518 5.17009 9.35784V9.3582ZM12.8303 9.3582C12.8195 10.7521 12.7099 12.069 12.5182 13.2628H16.9323C17.5824 12.0599 17.9476 10.7242 18 9.3582H12.8303ZM11.6011 4.014C11.1618 2.02824 10.4876 0.63036 9.76937 0.03492C9.51352 0.0124154 9.25684 0.000764898 9 0C8.74054 0 8.48469 0.01368 8.23099 0.03492C7.51279 0.63036 6.83856 2.02824 6.39928 4.014H11.6011ZM6.20901 13.2624H11.7917C11.9831 12.1068 12.0984 10.7946 12.1096 9.3582H5.89081C5.90162 10.7946 6.0173 12.1072 6.20901 13.2628V13.2624ZM6.34198 13.9824C6.71892 15.8242 7.29514 17.1943 7.92937 17.9341C8.28072 17.9759 8.63748 18 9 18C9.36252 18 9.71964 17.9759 10.071 17.9341C10.7052 17.1943 11.2814 15.8245 11.6584 13.9828H6.34198V13.9824ZM12.8277 8.6382H17.9996C17.947 7.27234 17.5816 5.93672 16.9315 4.734H12.4728C12.6793 5.92128 12.8036 7.23852 12.8277 8.6382ZM6.25586 4.734C6.04937 5.8824 5.91784 7.1946 5.89333 8.6382H12.107C12.0825 7.1946 11.951 5.88276 11.7445 4.734H6.25622H6.25586ZM1.50306 13.9824C2.74631 15.8425 4.66342 17.2152 6.9027 17.7509C6.35856 16.8156 5.91351 15.5218 5.61045 13.9828H1.50306V13.9824ZM11.0977 17.7512C13.338 17.2148 15.2551 15.8429 16.4977 13.9828H12.3899C12.0868 15.5218 11.6414 16.816 11.0977 17.7512ZM7.09874 0.2034C4.77622 0.70416 2.78378 2.10096 1.50451 4.014H5.66667C6.00541 2.41704 6.49946 1.1016 7.09874 0.2034ZM16.4966 4.014C15.2177 2.10096 13.2252 0.7038 10.9016 0.2034C11.5009 1.10124 11.9953 2.41704 12.3337 4.014H16.4966Z" fill="#B5BFC3"/>
</svg>
