<svg width="16" height="16" viewBox="0 0 16 16" fill="none" xmlns="http://www.w3.org/2000/svg">
<path d="M12.2661 6.88309L9.11691 3.73386L7.9856 2.60256L1.12534 9.46282L1.04785 9.54014C0.679265 9.90747 0.344037 10.2416 0.165982 10.6799C-0.0120579 11.1182 -0.00476759 11.5913 0.00324758 12.1116L0.00487374 12.2212L0.0250451 13.6935L0.0256125 13.7354C0.0298094 14.0467 0.0339532 14.3541 0.0713576 14.6087C0.113805 14.8975 0.212607 15.2308 0.490912 15.5091C0.769224 15.7874 1.10248 15.8862 1.39135 15.9286C1.64583 15.966 1.95318 15.9702 2.26446 15.9744L2.30648 15.9749L3.77884 15.9951L3.88829 15.9968C4.4086 16.0048 4.8818 16.0121 5.32013 15.834C5.75845 15.656 6.0925 15.3208 6.45979 14.9522L6.53717 14.8747L13.3974 8.0144L12.2661 6.88309Z" fill="#02897A"/>
<path d="M9.13724 14.3953C8.69544 14.3953 8.33729 14.7534 8.33729 15.1952C8.33729 15.6371 8.69544 15.9952 9.13724 15.9952L15.2 15.9952C15.6418 15.9952 16 15.6371 16 15.1953C16 14.7534 15.6418 14.3953 15.2 14.3953L9.13724 14.3953Z" fill="#02897A"/>
<path d="M10.2486 2.6029L13.3971 5.75145L14.5285 6.88288C14.9003 6.50896 15.2219 6.17473 15.4577 5.86571C15.7642 5.46396 16 5.01228 16 4.45361C16 3.89495 15.7642 3.44327 15.4577 3.04152C15.1726 2.66789 14.7621 2.25742 14.2891 1.7845L14.2155 1.71088C13.7426 1.2379 13.3321 0.827389 12.9585 0.542322C12.5567 0.235798 12.1051 0 11.5464 0C10.9877 0 10.536 0.235798 10.1343 0.542321C9.82527 0.7781 9.49104 1.0997 9.11712 1.47147L10.2486 2.6029Z" fill="#02897A"/>
</svg>
