<svg width="34" height="33" viewBox="0 0 34 33" fill="none" xmlns="http://www.w3.org/2000/svg">
<path fill-rule="evenodd" clip-rule="evenodd" d="M17.3808 0C26.4939 0 33.8808 7.38696 33.8808 16.5C33.8808 25.613 26.4939 33 17.3808 33C8.26782 33 0.880859 25.613 0.880859 16.5C0.880859 7.38696 8.26782 0 17.3808 0Z" fill="#DD2A30"/>
<path fill-rule="evenodd" clip-rule="evenodd" d="M19.9654 16.7398L15.9178 18.9602C15.7412 19.055 15.5833 18.928 15.5833 18.7282V14.1701C15.5833 13.9677 15.7463 13.8407 15.9223 13.9406L19.9983 16.2777C20.1788 16.3808 20.1478 16.6412 19.9654 16.7398ZM26.3701 14.1218C26.3701 11.96 24.6177 10.2075 22.4565 10.2075H12.3058C10.1441 10.2075 8.3916 11.96 8.3916 14.1218V18.8784C8.3916 21.0401 10.1441 22.7926 12.3058 22.7926H22.4565C24.6177 22.7926 26.3701 21.0401 26.3701 18.8784V14.1218Z" fill="white"/>
</svg>
