<svg width="25" height="26" viewBox="0 0 25 26" fill="none" xmlns="http://www.w3.org/2000/svg">
<path d="M10.9414 14.9293L15.0075 12.5874L10.9414 10.2456V14.9293Z" fill="white"/>
<path d="M12.5 0.0874023C5.5975 0.0874023 0 5.6849 0 12.5874C0 19.4899 5.5975 25.0874 12.5 25.0874C19.4025 25.0874 25 19.4899 25 12.5874C25 5.6849 19.4025 0.0874023 12.5 0.0874023ZM20.3106 12.6002C20.3106 12.6002 20.3106 15.1352 19.989 16.3577C19.8088 17.0268 19.2812 17.5543 18.6121 17.7344C17.3897 18.0562 12.5 18.0562 12.5 18.0562C12.5 18.0562 7.6231 18.0562 6.3879 17.7216C5.7188 17.5415 5.19123 17.0138 5.01099 16.3447C4.68922 15.1352 4.68922 12.5874 4.68922 12.5874C4.68922 12.5874 4.68922 10.0525 5.01099 8.83012C5.19104 8.16102 5.73158 7.62048 6.3879 7.44042C7.61032 7.11865 12.5 7.11865 12.5 7.11865C12.5 7.11865 17.3897 7.11865 18.6121 7.4532C19.2812 7.63326 19.8088 8.16102 19.989 8.83012C20.3236 10.0525 20.3106 12.6002 20.3106 12.6002Z" fill="white"/>
</svg>
